<svg width="327" height="161" viewBox="0 0 327 161" fill="none" xmlns="http://www.w3.org/2000/svg">
<path d="M326.053 152.136C326.371 152.136 326.53 152.614 326.53 153.568C326.53 154.523 326.371 155 326.053 155C321.28 155 317.541 154.92 314.836 154.761L298.847 154.523L279.755 154.761C276.573 154.92 272.039 155 266.152 155C265.834 155 265.675 154.523 265.675 153.568C265.675 152.614 265.834 152.136 266.152 152.136C272.675 152.136 277.21 151.818 279.755 151.182C282.46 150.386 284.29 148.954 285.244 146.886C286.199 144.659 286.676 140.92 286.676 135.67V111.566C266.63 111.248 248.254 111.089 231.548 111.089C230.753 111.089 230.116 110.85 229.639 110.373C229.321 109.736 229.401 109.1 229.878 108.464L308.154 4.65185C308.473 4.33365 308.95 4.17456 309.586 4.17456C310.063 4.17456 310.541 4.33365 311.018 4.65185C311.495 4.81095 311.734 5.12915 311.734 5.60644V103.213L326.053 102.736C326.689 102.736 327.007 104.407 327.007 107.748C327.007 111.089 326.689 112.759 326.053 112.759L311.734 112.043V135.67C311.734 140.602 312.052 144.181 312.689 146.409C313.484 148.636 314.836 150.148 316.746 150.943C318.655 151.739 321.757 152.136 326.053 152.136ZM245.39 104.168C265.118 104.168 278.88 104.088 286.676 103.929V44.7447L244.197 102.497C243.242 103.611 243.64 104.168 245.39 104.168Z" fill="#1D1D1B"/>
<path d="M96.9601 152.136C97.2783 152.136 97.4374 152.614 97.4374 153.568C97.4374 154.523 97.2783 155 96.9601 155C92.1872 155 88.4484 154.92 85.7437 154.761L69.7543 154.523L50.6624 154.761C47.4805 154.92 42.9462 155 37.0595 155C36.7413 155 36.5822 154.523 36.5822 153.568C36.5822 152.614 36.7413 152.136 37.0595 152.136C43.5826 152.136 48.1169 151.818 50.6624 151.182C53.3671 150.386 55.1968 148.954 56.1513 146.886C57.1059 144.659 57.5832 140.92 57.5832 135.67V111.566C37.5368 111.248 19.1609 111.089 2.45557 111.089C1.66008 111.089 1.02368 110.85 0.546387 110.373C0.22819 109.736 0.307739 109.1 0.785035 108.464L79.0615 4.65185C79.3797 4.33365 79.857 4.17456 80.4934 4.17456C80.9707 4.17456 81.448 4.33365 81.9253 4.65185C82.4026 4.81095 82.6413 5.12915 82.6413 5.60644V103.213L96.9601 102.736C97.5965 102.736 97.9147 104.407 97.9147 107.748C97.9147 111.089 97.5965 112.759 96.9601 112.759L82.6413 112.043V135.67C82.6413 140.602 82.9595 144.181 83.5959 146.409C84.3913 148.636 85.7437 150.148 87.6529 150.943C89.5621 151.739 92.6645 152.136 96.9601 152.136ZM16.2971 104.168C36.0254 104.168 49.7874 104.088 57.5832 103.929V44.7447L15.1039 102.497C14.1493 103.611 14.5471 104.168 16.2971 104.168Z" fill="#1D1D1B"/>
<path fill-rule="evenodd" clip-rule="evenodd" d="M117.925 130.268C124.487 145.315 135.602 154.216 151.272 156.972C166.941 159.727 180.335 155.217 191.452 143.441C202.597 131.509 210.263 113.634 214.452 89.8165C216.111 80.3824 216.956 71.6447 216.988 63.6033L209.493 70.9013L199.969 65.7505L190.775 74.8086L189.241 68.2936C188.461 74.2596 187.454 80.7482 186.221 87.7594C181.922 112.204 177.361 129.413 172.537 139.388C167.714 149.363 161.855 153.744 154.96 152.532C145.872 150.933 140.283 144.135 138.193 132.137C136.287 120.009 137.636 100.861 142.238 74.6935C146.619 49.7791 151.314 32.2699 156.322 22.1659C161.514 11.9327 167.792 7.4637 175.156 8.75888C180.954 9.77848 185.122 13.1769 187.66 18.954C190.332 24.4977 191.531 32.6615 191.258 43.4454L193.112 43.929L200.154 35.2356L213.314 38.0225L213.618 37.769C212.923 35.4513 212.12 33.2257 211.21 31.0919C204.989 15.9439 194.123 7.00585 178.61 4.27772C162.627 1.46691 148.985 6.01397 137.684 17.9189C126.41 29.6671 118.665 47.5283 114.448 71.5025C110.232 95.4767 111.391 115.065 117.925 130.268Z" fill="#1D1D1B"/>
</svg>
