<svg width="64" height="64" viewBox="0 0 64 64" fill="none" xmlns="http://www.w3.org/2000/svg">
<path d="M48 38C47.7348 38 47.4804 38.1054 47.2929 38.2929C47.1054 38.4804 47 38.7348 47 39C47 39.2652 47.1054 39.5196 47.2929 39.7071C47.4804 39.8946 47.7348 40 48 40C48.2652 40 48.5196 39.8946 48.7071 39.7071C48.8946 39.5196 49 39.2652 49 39C49 38.7348 48.8946 38.4804 48.7071 38.2929C48.5196 38.1054 48.2652 38 48 38Z" fill="#E30613"/>
<path d="M60.83 36.17C60.1384 35.4829 59.2226 35.0676 58.25 35C57.4442 32.9387 56.0354 31.1685 54.2076 29.9205C52.3799 28.6726 50.2182 28.005 48.005 28.005C45.7918 28.005 43.6301 28.6726 41.8024 29.9205C39.9746 31.1685 38.5658 32.9387 37.76 35H37V31C37 30.7348 36.8946 30.4804 36.7071 30.2929C36.5196 30.1054 36.2652 30 36 30H29V22C28.9988 21.0681 28.8116 20.1458 28.4493 19.2872C28.0869 18.4286 27.5568 17.651 26.89 17H31C31.2652 17 31.5196 16.8946 31.7071 16.7071C31.8946 16.5196 32 16.2652 32 16C32 15.7348 31.8946 15.4804 31.7071 15.2929C31.5196 15.1054 31.2652 15 31 15H11C10.7348 15 10.4804 15.1054 10.2929 15.2929C10.1054 15.4804 10 15.7348 10 16C10 16.2652 10.1054 16.5196 10.2929 16.7071C10.4804 16.8946 10.7348 17 11 17H13V30H9C8.89156 30.002 8.78389 30.0188 8.68 30.05L2.68 32.05C2.48138 32.1171 2.30887 32.2449 2.18685 32.4154C2.06482 32.5858 1.99946 32.7904 2 33V41C2 41.7956 2.31607 42.5587 2.87868 43.1213C3.44129 43.6839 4.20435 44 5 44H6.26C6.75134 45.88 7.91013 47.5169 9.52001 48.6051C11.1299 49.6933 13.0808 50.1583 15.0084 49.9133C16.9361 49.6684 18.7087 48.7303 19.9953 47.274C21.2819 45.8178 21.9945 43.9431 22 42C21.999 41.6386 21.9722 41.2776 21.92 40.92V41H31V42C31 42.2652 31.1054 42.5196 31.2929 42.7071C31.4804 42.8946 31.7348 43 32 43H37.76C38.5658 45.0613 39.9746 46.8315 41.8024 48.0795C43.6301 49.3274 45.7918 49.995 48.005 49.995C50.2182 49.995 52.3799 49.3274 54.2076 48.0795C56.0354 46.8315 57.4442 45.0613 58.25 43C59.0143 42.9487 59.7477 42.6791 60.3633 42.2231C60.9788 41.7672 61.4504 41.1441 61.7221 40.4279C61.9938 39.7118 62.0542 38.9326 61.8961 38.1831C61.7379 37.4336 61.3679 36.7453 60.83 36.2V36.17ZM20 17H22C23.3261 17 24.5979 17.5268 25.5355 18.4645C26.4732 19.4021 27 20.6739 27 22V27H21.54L20 24.7V17ZM15 17H18V24H15V17ZM15 26H18.46L20.17 28.55C20.2606 28.6876 20.3838 28.8006 20.5286 28.8791C20.6733 28.9576 20.8353 28.9991 21 29H27V30H15V26ZM14 48C12.8133 48 11.6533 47.6481 10.6666 46.9888C9.67989 46.3295 8.91085 45.3925 8.45673 44.2961C8.0026 43.1997 7.88378 41.9933 8.11529 40.8295C8.3468 39.6656 8.91825 38.5965 9.75736 37.7574C10.5965 36.9182 11.6656 36.3468 12.8295 36.1153C13.9933 35.8838 15.1997 36.0026 16.2961 36.4567C17.3925 36.9108 18.3295 37.6799 18.9888 38.6666C19.6481 39.6533 20 40.8133 20 42C20 43.5913 19.3679 45.1174 18.2426 46.2426C17.1174 47.3679 15.5913 48 14 48ZM31 39H25.85L31 36.58V39ZM31 34.37L21.37 38.9C20.76 37.4487 19.7353 36.2097 18.4243 35.338C17.1133 34.4664 15.5743 34.001 14 34H7C6.73479 34 6.48043 34.1054 6.2929 34.2929C6.10536 34.4804 6 34.7348 6 35C6 35.2652 6.10536 35.5196 6.2929 35.7071C6.48043 35.8946 6.73479 36 7 36H8.73C7.87483 36.7488 7.18903 37.6712 6.7183 38.7057C6.24756 39.7403 6.00269 40.8634 6 42H5C4.73479 42 4.48043 41.8946 4.2929 41.7071C4.10536 41.5196 4 41.2652 4 41V33.72L9.16 32H31V34.37ZM48 30C49.6758 30.0004 51.3181 30.4687 52.7421 31.3521C54.1661 32.2354 55.3152 33.4988 56.06 35H39.94C40.6848 33.4988 41.8339 32.2354 43.2579 31.3521C44.6819 30.4687 46.3242 30.0004 48 30ZM48 48C46.3242 47.9996 44.6819 47.5313 43.2579 46.6479C41.8339 45.7646 40.6848 44.5012 39.94 43H56.06C55.3152 44.5012 54.1661 45.7646 52.7421 46.6479C51.3181 47.5313 49.6758 47.9996 48 48ZM58 41H33V32H35V36C35 36.2652 35.1054 36.5196 35.2929 36.7071C35.4804 36.8946 35.7348 37 36 37H58C58.272 36.9595 58.5497 36.9833 58.8108 37.0695C59.072 37.1557 59.3093 37.3019 59.5037 37.4963C59.6981 37.6908 59.8443 37.9281 59.9305 38.1892C60.0167 38.4503 60.0405 38.728 60 39C60 39.5304 59.7893 40.0391 59.4142 40.4142C59.0391 40.7893 58.5304 41 58 41Z" fill="#1D1D1B" stroke="#F8F8F8"/>
<path d="M14 39C13.4067 39 12.8266 39.1759 12.3333 39.5056C11.8399 39.8352 11.4554 40.3038 11.2284 40.852C11.0013 41.4001 10.9419 42.0033 11.0576 42.5853C11.1734 43.1672 11.4591 43.7018 11.8787 44.1213C12.2982 44.5409 12.8328 44.8266 13.4147 44.9424C13.9967 45.0581 14.5999 44.9987 15.1481 44.7716C15.6962 44.5446 16.1648 44.1601 16.4944 43.6667C16.8241 43.1734 17 42.5933 17 42C17 41.2044 16.6839 40.4413 16.1213 39.8787C15.5587 39.3161 14.7957 39 14 39ZM14 43C13.8022 43 13.6089 42.9414 13.4444 42.8315C13.28 42.7216 13.1518 42.5654 13.0761 42.3827C13.0004 42.2 12.9806 41.9989 13.0192 41.8049C13.0578 41.6109 13.153 41.4327 13.2929 41.2929C13.4327 41.153 13.6109 41.0578 13.8049 41.0192C13.9989 40.9806 14.2 41.0004 14.3827 41.0761C14.5654 41.1518 14.7216 41.28 14.8315 41.4444C14.9414 41.6089 15 41.8022 15 42C15 42.2652 14.8946 42.5196 14.7071 42.7071C14.5196 42.8946 14.2652 43 14 43Z" fill="#E30613" stroke="#F8F8F8"/>
</svg>
