<svg width="64" height="64" viewBox="0 0 64 64" fill="none" xmlns="http://www.w3.org/2000/svg">
<path d="M54.6004 53.4C55.1004 53.4 55.5104 53.8 55.5104 54.3C55.5104 54.8 55.1004 55.2 54.6004 55.2C54.1004 55.2 53.6904 54.8 53.6904 54.3C53.6904 53.8 54.1004 53.4 54.6004 53.4Z" fill="#E30613"/>
<path d="M17.2703 7.09998C17.7703 7.09998 18.1803 7.49997 18.1803 7.99997C18.1803 8.49997 17.7703 8.89998 17.2703 8.89998C16.7703 8.89998 16.3604 8.49997 16.3604 7.99997C16.3604 7.49997 16.7703 7.09998 17.2703 7.09998Z" fill="#E30613"/>
<path d="M39.4295 4C39.9295 4 40.3395 4.40001 40.3395 4.90001C40.3395 5.40001 39.9295 5.8 39.4295 5.8C38.9295 5.8 38.5195 5.40001 38.5195 4.90001C38.5195 4.40001 38.9295 4 39.4295 4Z" fill="#E30613"/>
<path d="M57.7401 22.8C58.2401 22.8 58.6501 23.2 58.6501 23.7C58.6501 24.2 58.2401 24.6 57.7401 24.6C57.2401 24.6 56.8301 24.2 56.8301 23.7C56.8301 23.2 57.2401 22.8 57.7401 22.8Z" fill="#E30613"/>
<path d="M34.37 48.4C34.87 48.4 35.28 48.8 35.28 49.3C35.28 49.8 34.87 50.2 34.37 50.2C33.87 50.2 33.46 49.8 33.46 49.3C33.46 48.8 33.87 48.4 34.37 48.4Z" fill="#E30613"/>
<path d="M7.16 52.8C7.66 52.8 8.07001 53.2 8.07001 53.7C8.07001 54.2 7.66 54.6 7.16 54.6C6.66 54.6 6.25 54.2 6.25 53.7C6.25 53.2 6.66 52.8 7.16 52.8Z" fill="#E30613"/>
<path d="M61.28 39C61.28 32.3 55.92 26.8 49.24 26.5C48.94 17.5 41.35 10.2 32.14 10.2C22.93 10.2 15.45 17.5 15.04 26.5C8.36001 26.8 3 32.3 3 39C3 45.7 8.66999 51.5 15.65 51.5C22.63 51.5 28.29 45.9 28.29 39C28.29 32.1 22.93 26.8 16.25 26.5C16.55 18.2 23.53 11.5 32.03 11.5C40.53 11.5 47.51 18.2 47.81 26.5C41.13 26.8 35.77 32.3 35.77 39C35.77 41.7 36.58 44.1 38.1 46.2C40.43 49.4 44.17 51.5 48.42 51.5C55.5 51.5 61.27 45.9 61.27 39H61.28ZM15.76 50.2C12.12 50.2 8.78001 48.5 6.76001 45.8C8.88001 43 12.22 41.4 15.76 41.4C19.3 41.4 22.64 43 24.76 45.8C22.64 48.5 19.4 50.2 15.76 50.2ZM11.71 36.2C11.71 34 13.53 32.3 15.66 32.3C17.79 32.3 19.61 34.1 19.61 36.2C19.61 38.3 17.79 40.1 15.66 40.1C13.53 40.1 11.71 38.4 11.71 36.2ZM27.09 39C27.09 41.1 26.48 43.1 25.47 44.8C23.75 42.7 21.32 41.2 18.69 40.6C20.11 39.7 21.02 38.1 21.02 36.3C21.02 33.4 18.69 31.1 15.76 31.1C12.83 31.1 10.5 33.4 10.5 36.3C10.5 38.1 11.41 39.7 12.83 40.6C10.2 41.2 7.76999 42.7 6.04999 44.8C5.03999 43.1 4.42999 41.1 4.42999 39C4.42999 32.8 9.49002 27.7 15.86 27.7C22.23 27.7 27.09 32.8 27.09 39ZM48.64 27.7C54.91 27.7 60.07 32.7 60.07 39C60.07 41.1 59.46 43.1 58.45 44.8C56.73 42.7 54.3 41.2 51.67 40.6C53.09 39.7 54 38.1 54 36.3C54 33.4 51.67 31.1 48.74 31.1C45.81 31.1 43.48 33.4 43.48 36.3C43.48 38.1 44.39 39.7 45.81 40.6C43.18 41.2 40.75 42.7 39.03 44.8C38.02 43.1 37.41 41.1 37.41 39C37.21 32.8 42.27 27.7 48.64 27.7ZM44.59 36.2C44.59 34 46.41 32.3 48.54 32.3C50.67 32.3 52.49 34.1 52.49 36.2C52.49 38.3 50.67 40.1 48.54 40.1C46.41 40.1 44.59 38.4 44.59 36.2ZM48.64 50.2C45 50.2 41.66 48.5 39.64 45.8C41.76 43 45.1 41.4 48.64 41.4C52.18 41.4 55.52 43 57.64 45.8C55.52 48.5 52.28 50.2 48.64 50.2Z" fill="#1D1D1B"/>
<path d="M28.17 17.75L26.15 19.75C25.95 19.95 25.95 20.35 26.15 20.65L30.4 24.85C30.5 24.95 30.7 25.05 30.81 25.05C31.01 25.05 31.11 24.95 31.21 24.85L38.09 18.05C38.29 17.85 38.29 17.45 38.09 17.15L36.07 15.15C35.87 14.95 35.46 14.95 35.16 15.15L30.71 19.55L28.89 17.75C28.79 17.65 28.59 17.55 28.48 17.55C28.37 17.55 28.28 17.65 28.18 17.75H28.17ZM30.4 20.95C30.6 21.15 31.01 21.15 31.31 20.95L35.76 16.55L36.87 17.65L30.8 23.65L27.36 20.25L28.47 19.15L30.39 20.95H30.4Z" fill="#E30613"/>
<path d="M48.6302 10.2C50.3502 10.2 51.7702 8.80001 51.7702 7.10001C51.7702 5.40001 50.3502 4 48.6302 4C46.9102 4 45.4902 5.40001 45.4902 7.10001C45.4902 8.80001 46.8002 10.2 48.6302 10.2ZM48.6302 5.20001C49.6402 5.20001 50.5502 6.00001 50.5502 7.10001C50.5502 8.20001 49.7402 9 48.6302 9C47.5202 9 46.7102 8.20001 46.7102 7.10001C46.7102 6.00001 47.5202 5.20001 48.6302 5.20001Z" fill="#E30613"/>
<path d="M24.5597 52.7C22.4397 52.7 20.7197 54.4 20.7197 56.5C20.7197 58.6 22.4397 60.3 24.5597 60.3C26.6797 60.3 28.3997 58.6 28.3997 56.5C28.3997 54.4 26.6797 52.7 24.5597 52.7ZM24.5597 59C23.1397 59 22.0297 57.9 22.0297 56.5C22.0297 55.1 23.1397 54 24.5597 54C25.9797 54 27.0897 55.1 27.0897 56.5C27.0897 57.9 25.9797 59 24.5597 59Z" fill="#E30613"/>
</svg>
