<svg width="64" height="64" viewBox="0 0 64 64" fill="none" xmlns="http://www.w3.org/2000/svg">
<path d="M52.4604 50C52.4604 49.7 52.2604 49.5001 51.9504 49.4001C51.8504 49.4001 49.2204 49.2 46.5904 49C46.2904 49 45.9804 49.2 45.8804 49.6C45.8804 49.9 46.0804 50.2 46.4904 50.3L50.4403 50.6C45.6903 54.8 39.6204 57.2 33.1404 57.2C26.2604 57.2 19.6904 54.5 14.8304 49.7C7.34036 42.3 5.22037 31.3 9.27037 21.7C9.37037 21.4 9.27035 21.0001 8.97035 20.9001C8.67035 20.8001 8.26035 20.9 8.16035 21.2C6.14035 26.1 5.53036 31.4 6.54036 36.6C7.55036 41.9 10.1803 46.8 14.0303 50.6C19.1903 55.7 25.9703 58.5 33.2503 58.5C40.0303 58.5 46.4004 56.1 51.3604 51.6V55.5C51.3604 55.8 51.6603 56.1 51.9703 56.1C52.2803 56.1 52.5804 55.8 52.5804 55.5C52.4804 54.2 52.4804 50.1 52.4804 50H52.4604Z" fill="#E30613"/>
<path d="M58.7299 40.5C60.45 35.8 60.75 30.7 59.64 25.8C58.53 20.8 56 16.2 52.2599 12.5C47.0999 7.4 40.3199 4.59998 33.0399 4.59998C26.2599 4.59998 19.89 7 14.93 11.5V7.59998C14.93 7.29998 14.6299 7 14.3199 7C14.0099 7 13.71 7.29998 13.71 7.59998V12.9C13.71 13.2 14.0099 13.5 14.3199 13.5L19.68 13.9H19.7799C20.0799 13.9 20.39 13.7 20.39 13.3C20.39 13 20.1899 12.7 19.7799 12.6L15.83 12.3C20.58 8.09999 26.6499 5.70001 33.1299 5.70001C40.0099 5.70001 46.5799 8.40001 51.4399 13.2C58.4199 20.1 60.8499 30.6 57.5099 39.9C57.41 40.2 57.6099 40.6 57.9099 40.7H58.11C58.31 40.9 58.6199 40.7 58.7199 40.5H58.7299Z" fill="#1D1D1B"/>
<path d="M33.0396 11.5C21.9096 11.5 12.8096 20.5 12.8096 31.5C12.8096 42.5 21.9096 51.5 33.0396 51.5C44.1696 51.5 53.2696 42.5 53.2696 31.5C53.2696 20.5 44.2696 11.5 33.0396 11.5ZM33.0396 50.3C22.6196 50.3 14.0196 41.9 14.0196 31.5C14.0196 21.1 22.5196 12.7 33.0396 12.7C43.5596 12.7 52.0596 21.1 52.0596 31.5C52.0596 41.9 43.5596 50.3 33.0396 50.3Z" fill="#1D1D1B"/>
<path d="M55.7995 10.3C57.2195 10.3 58.3295 9.19999 58.3295 7.79999C58.3295 6.39999 57.2195 5.29999 55.7995 5.29999C54.3795 5.29999 53.2695 6.39999 53.2695 7.79999C53.2695 9.19999 54.4795 10.3 55.7995 10.3ZM55.7995 6.5C56.5095 6.5 57.1095 7.09999 57.1095 7.79999C57.1095 8.49999 56.4995 9.09998 55.7995 9.09998C55.0995 9.09998 54.4795 8.49999 54.4795 7.79999C54.5795 7.09999 55.0895 6.5 55.7995 6.5Z" fill="#E30613"/>
<path d="M8.45035 51.5C6.33035 51.5 4.61035 53.2 4.61035 55.3C4.61035 57.4 6.33035 59 8.45035 59C10.5703 59 12.2903 57.3 12.2903 55.2C12.2903 53.1 10.4703 51.5 8.45035 51.5ZM8.45035 57.8C7.03035 57.8 5.92035 56.7 5.92035 55.3C5.92035 53.9 7.03035 52.8 8.45035 52.8C9.87035 52.8 10.9803 53.9 10.9803 55.3C10.9803 56.7 9.77035 57.8 8.45035 57.8Z" fill="#1D1D1B"/>
<path d="M59.3397 13.4C59.8397 13.4 60.2497 13.8 60.2497 14.3C60.2497 14.8 59.8397 15.2 59.3397 15.2C58.8397 15.2 58.4297 14.8 58.4297 14.3C58.4297 13.8 58.8397 13.4 59.3397 13.4Z" fill="#E30613"/>
<path d="M9.3602 4C9.8602 4 10.2702 4.40002 10.2702 4.90002C10.2702 5.40002 9.8602 5.79999 9.3602 5.79999C8.8602 5.79999 8.4502 5.40002 8.4502 4.90002C8.4502 4.40002 8.8602 4 9.3602 4Z" fill="#1D1D1B"/>
<path d="M59.3397 44.7C59.8397 44.7 60.2497 45.1 60.2497 45.6C60.2497 46.1 59.8397 46.5 59.3397 46.5C58.8397 46.5 58.4297 46.1 58.4297 45.6C58.4297 45.1 58.8397 44.7 59.3397 44.7Z" fill="#1D1D1B"/>
<path d="M16.3397 56.5C16.8397 56.5 17.2497 56.9 17.2497 57.4C17.2497 57.9 16.8397 58.3 16.3397 58.3C15.8397 58.3 15.4297 57.9 15.4297 57.4C15.4297 56.9 15.8397 56.5 16.3397 56.5Z" fill="#1D1D1B"/>
<path d="M4.91 44.7C5.41 44.7 5.82001 45.1 5.82001 45.6C5.82001 46.1 5.41 46.5 4.91 46.5C4.41 46.5 4 46.1 4 45.6C4 45.1 4.41 44.7 4.91 44.7Z" fill="#1D1D1B"/>
</svg>
