<svg width="64" height="64" viewBox="0 0 64 64" fill="none" xmlns="http://www.w3.org/2000/svg">
<path d="M60.56 31.4H3.61002C3.31002 31.4 3 31.7 3 32V49.5C3 49.8 3.30002 50.1 3.61002 50.1H60.56C60.86 50.1 61.17 49.8 61.17 49.5V32C61.27 31.7 60.97 31.4 60.56 31.4ZM59.95 40.1H42.25V32.6H59.95V40.1ZM41.03 40.1H23.33V32.6H41.03V40.1ZM4.31003 32.6H22.01V40.1H4.31003V32.6ZM4.31003 41.4H22.01V48.9H4.31003V41.4ZM23.33 41.4H41.03V48.9H23.33V41.4ZM59.95 48.9H42.25V41.4H59.95V48.9Z" fill="#1D1D1B"/>
<path d="M30.5201 28.1C30.7201 28.3 31.1301 28.3 31.4301 28.1L40.8401 18.8C40.9401 18.7 41.0401 18.5 41.0401 18.4C41.0401 18.3 40.9401 18.1 40.8401 18L38.1101 15.3C37.9101 15.1 37.5001 15.1 37.2001 15.3L31.0301 21.5L28.3001 18.8C28.2001 18.7 28.0001 18.6 27.9001 18.6C27.8001 18.6 27.6001 18.7 27.5001 18.8L24.7701 21.5C24.5701 21.7 24.5701 22.1 24.7701 22.4L30.5401 28.1H30.5201ZM27.8901 20.2L30.6201 22.9C30.7201 23 30.9201 23.1 31.0201 23.1C31.2201 23.1 31.3201 23 31.4201 22.9L37.6901 16.7L39.5101 18.5L31.0101 26.9L26.0501 22L27.8701 20.2H27.8901Z" fill="#E30613"/>
<path d="M47.9201 12.6C50.0401 12.6 51.7601 10.9 51.7601 8.79999C51.7601 6.69999 50.0401 5 47.9201 5C45.8001 5 44.0801 6.69999 44.0801 8.79999C44.0801 10.9 45.9001 12.6 47.9201 12.6ZM47.9201 6.39999C49.3401 6.39999 50.4501 7.49999 50.4501 8.89999C50.4501 10.3 49.3401 11.4 47.9201 11.4C46.5001 11.4 45.3901 10.3 45.3901 8.89999C45.3901 7.49999 46.5001 6.39999 47.9201 6.39999Z" fill="#1D1D1B"/>
<path d="M14.4301 52.6C12.7101 52.6 11.29 54 11.29 55.7C11.29 57.4 12.7101 58.8 14.4301 58.8C16.1501 58.8 17.57 57.4 17.57 55.7C17.57 54 16.1501 52.6 14.4301 52.6ZM14.4301 57.6C13.4201 57.6 12.51 56.8 12.51 55.7C12.51 54.6 13.3201 53.8 14.4301 53.8C15.5401 53.8 16.35 54.6 16.35 55.7C16.35 56.8 15.4401 57.6 14.4301 57.6Z" fill="#1D1D1B"/>
<path d="M55.2 55.8C55.7 55.8 56.11 56.2 56.11 56.7C56.11 57.2 55.7 57.6 55.2 57.6C54.7 57.6 54.29 57.2 54.29 56.7C54.29 56.2 54.7 55.8 55.2 55.8Z" fill="#1D1D1B"/>
<path d="M58.3299 10.2C58.8299 10.2 59.2399 10.6 59.2399 11.1C59.2399 11.6 58.8299 12 58.3299 12C57.8299 12 57.4199 11.6 57.4199 11.1C57.4199 10.6 57.8299 10.2 58.3299 10.2Z" fill="#1D1D1B"/>
<path d="M32.4402 10.2C32.9402 10.2 33.3503 10.6 33.3503 11.1C33.3503 11.6 32.9402 12 32.4402 12C31.9402 12 31.5303 11.6 31.5303 11.1C31.5303 10.6 31.9402 10.2 32.4402 10.2Z" fill="#1D1D1B"/>
<path d="M8.45981 5.79999C8.95981 5.79999 9.36981 6.20001 9.36981 6.70001C9.36981 7.20001 8.95981 7.60001 8.45981 7.60001C7.95981 7.60001 7.5498 7.20001 7.5498 6.70001C7.5498 6.20001 7.95981 5.79999 8.45981 5.79999Z" fill="#1D1D1B"/>
<path d="M34.9695 52.7C35.4695 52.7 35.8795 53.1 35.8795 53.6C35.8795 54.1 35.4695 54.5 34.9695 54.5C34.4695 54.5 34.0596 54.1 34.0596 53.6C34.0596 53.1 34.4695 52.7 34.9695 52.7Z" fill="#1D1D1B"/>
</svg>
