<svg width="55" height="55" viewBox="0 0 55 55" fill="none" xmlns="http://www.w3.org/2000/svg">
<path d="M30.7852 20.1959C29.9633 20.1959 29.2069 20.4798 28.6071 20.9535C28.3724 19.2381 26.8984 17.9118 25.1196 17.9118C24.1763 17.9118 23.3185 18.2847 22.6857 18.8909C22.1437 17.6428 20.8992 16.7678 19.4541 16.7678C18.6475 16.7678 17.9039 17.0411 17.3096 17.4991V10.7212C17.3096 8.77973 15.7301 7.2002 13.7886 7.2002C11.847 7.2002 10.2676 8.77973 10.2676 10.7212V22.1076C10.2676 22.4877 10.5757 22.7958 10.9558 22.7958C11.3359 22.7958 11.644 22.4877 11.644 22.1076V10.7212C11.644 9.53872 12.6061 8.57666 13.7886 8.57666C14.971 8.57666 15.9331 9.53872 15.9331 10.7212V26.1569C15.9331 26.5369 16.2412 26.8451 16.6213 26.8451C17.0014 26.8451 17.3096 26.5369 17.3096 26.1569V20.2887C17.3096 19.1062 18.2716 18.1442 19.4541 18.1442C20.6366 18.1442 21.5986 19.1061 21.5986 20.2887V26.1569C21.5986 26.5369 21.9068 26.8451 22.2869 26.8451C22.667 26.8451 22.9751 26.5369 22.9751 26.1569V21.4328C22.9751 20.2504 23.9371 19.2883 25.1196 19.2883C26.3022 19.2883 27.2642 20.2504 27.2642 21.4328V26.1569C27.2642 26.5369 27.5723 26.8451 27.9524 26.8451C28.3325 26.8451 28.6406 26.5369 28.6406 26.1569V23.7168C28.6406 22.5344 29.6027 21.5723 30.7852 21.5723C31.9676 21.5723 32.9297 22.5343 32.9297 23.7168V33.857L32.9264 36.7812C32.8932 39.1848 32.4322 41.5357 31.5562 43.7687L31.3368 44.328C31.1903 44.7017 31.116 45.0946 31.116 45.4961V50.2594C31.116 50.6395 31.4241 50.9476 31.8042 50.9476C32.1843 50.9476 32.4924 50.6395 32.4924 50.2594V45.4961C32.4924 45.2674 32.5347 45.0436 32.6182 44.8308L32.8376 44.2714C33.7743 41.8837 34.2672 39.37 34.3028 36.7915L34.3061 33.8577V23.7168C34.3061 21.7754 32.7266 20.1959 30.7852 20.1959Z" fill="#E30613"/>
<path d="M13.9424 43.9202C12.0019 43.4942 10.3156 42.3565 9.19411 40.7168L1.78411 29.8825C1.10901 28.8953 1.29361 27.5746 2.21361 26.8105C3.15821 26.0259 4.54931 26.1194 5.38041 27.0234L9.73701 31.7611C10.0457 32.0968 10.5199 32.2068 10.9449 32.041C11.3699 31.8753 11.6445 31.4735 11.6445 31.0173V25.0413C11.6445 24.6612 11.3364 24.353 10.9563 24.353C10.5762 24.353 10.268 24.6612 10.268 25.0413V30.305L6.39371 26.0916C5.06571 24.6476 2.84341 24.498 1.33411 25.7516C-0.135812 26.9723 -0.430831 29.0823 0.647809 30.6594L8.05781 41.4937C9.33321 43.3584 11.2288 44.6715 13.4155 45.2105V50.2599C13.4155 50.64 13.7236 50.9481 14.1037 50.9481C14.4838 50.9481 14.7919 50.64 14.7919 50.2599V44.9765C14.792 44.4725 14.4347 44.0283 13.9424 43.9202Z" fill="#E30613"/>
<path d="M20.114 11.6611C20.114 12.6726 19.8794 13.6399 19.4166 14.536C19.2422 14.8738 19.3746 15.289 19.7124 15.4633C19.8134 15.5154 19.9212 15.5401 20.0276 15.5401C20.2768 15.5401 20.5174 15.4043 20.6396 15.1675C21.2042 14.0742 21.4905 12.8945 21.4905 11.6611C21.4905 9.98369 20.9577 8.39039 19.9497 7.05348C19.721 6.75001 19.2894 6.68945 18.9859 6.91822C18.6824 7.14708 18.6218 7.57855 18.8506 7.88211C19.6772 8.97842 20.114 10.2851 20.114 11.6611Z" fill="#1D1D1B"/>
<path d="M7.63189 15.54C7.73829 15.54 7.84609 15.5152 7.94719 15.4631C8.28479 15.2887 8.41728 14.8735 8.24278 14.5358C7.78008 13.6397 7.54539 12.6725 7.54539 11.6608C7.54539 8.19565 10.3646 5.37646 13.8298 5.37646C14.8838 5.37646 15.9268 5.64286 16.846 6.14683C17.1792 6.32962 17.5976 6.20748 17.7803 5.87419C17.9631 5.54091 17.8411 5.12264 17.5077 4.93985C16.3863 4.32503 15.1145 4 13.8298 4C9.60548 4 6.16888 7.43666 6.16888 11.6608C6.16888 12.8943 6.45528 14.0741 7.01988 15.1673C7.14208 15.4042 7.38269 15.54 7.63189 15.54Z" fill="#1D1D1B"/>
<path d="M3.77633 17.1185C3.87533 17.1185 3.97593 17.097 4.07123 17.0517C4.41453 16.8886 4.56052 16.478 4.39742 16.1346C3.73022 14.7312 3.39213 13.226 3.39213 11.6608C3.39213 10.0957 3.73032 8.5905 4.39742 7.18706C4.56052 6.84377 4.41453 6.43321 4.07123 6.26996C3.72783 6.10671 3.31743 6.2528 3.15413 6.59609C2.39863 8.18563 2.01562 9.8896 2.01562 11.6607C2.01562 13.4319 2.39863 15.136 3.15413 16.7254C3.27213 16.9734 3.51893 17.1185 3.77633 17.1185Z" fill="#1D1D1B"/>
<path d="M23.5864 17.0517C23.6817 17.097 23.7823 17.1185 23.8813 17.1185C24.1387 17.1185 24.3855 16.9734 24.5034 16.7255C25.2589 15.1358 25.6419 13.4318 25.6419 11.6608C25.6419 9.88975 25.2589 8.18578 24.5034 6.59614C24.3402 6.25276 23.9297 6.10676 23.5864 6.26992C23.2431 6.43308 23.097 6.84363 23.2601 7.18692C23.9272 8.59046 24.2654 10.0957 24.2654 11.6607C24.2654 13.2257 23.9272 14.731 23.2601 16.1345C23.097 16.478 23.2431 16.8885 23.5864 17.0517Z" fill="#1D1D1B"/>
</svg>
