<svg width="55" height="55" viewBox="0 0 55 55" fill="none" xmlns="http://www.w3.org/2000/svg">
<path d="M47.0886 22.6687C47.835 21.9045 47.8206 20.68 47.0564 19.9335C46.7673 19.6512 46.3972 19.4664 45.9978 19.4053L34.4661 17.6269C34.4309 17.6243 34.3997 17.6034 34.3836 17.5719L29.2503 6.57192C28.7963 5.60491 27.6444 5.18908 26.6775 5.64304C26.269 5.83479 25.9404 6.16339 25.7486 6.57192L20.6153 17.5719C20.6011 17.6009 20.5738 17.6214 20.5419 17.6269L8.97365 19.4054C7.9178 19.5672 7.19291 20.5542 7.35458 21.6101C7.41571 22.0095 7.60047 22.3797 7.88278 22.6688L16.3161 31.3221C16.3295 31.3512 16.3295 31.3847 16.3161 31.4138L14.3636 43.5779C14.1906 44.632 14.9049 45.6268 15.959 45.7998C16.3867 45.8701 16.8255 45.7945 17.2053 45.5854L27.4536 39.9113C27.4848 39.8932 27.5233 39.8932 27.5545 39.9113L37.8029 45.5854C38.7355 46.1063 39.9138 45.7725 40.4346 44.8399C40.6488 44.4563 40.7262 44.0112 40.6536 43.5779L38.6553 31.4138C38.642 31.3847 38.642 31.3512 38.6553 31.3221L47.0886 22.6687ZM36.877 31.6704L38.857 43.8345C38.8772 43.8651 38.8772 43.9048 38.857 43.9354C38.8245 43.9599 38.7796 43.9599 38.747 43.9354L28.4161 38.307C27.8442 37.9973 27.1547 37.9973 26.5828 38.307L16.3161 43.9995C16.2836 44.024 16.2387 44.024 16.2061 43.9995C16.186 43.9689 16.186 43.9293 16.2061 43.8987L18.1495 31.707C18.2464 31.1026 18.0528 30.4878 17.627 30.0479L9.16615 21.3854C9.14165 21.3528 9.14165 21.3079 9.16615 21.2754C9.1742 21.2353 9.20782 21.2054 9.24865 21.202L20.8078 19.4329C21.4504 19.3359 22.0014 18.9226 22.2744 18.3329L27.4078 7.33289C27.431 7.2823 27.4908 7.26006 27.5414 7.28327C27.5634 7.29336 27.581 7.31098 27.591 7.33289L32.7244 18.3329C32.998 18.9167 33.5446 19.3258 34.1819 19.4238L45.741 21.2113C45.7853 21.2104 45.8239 21.2412 45.8327 21.2846L45.8235 21.2388C45.848 21.2713 45.848 21.3162 45.8235 21.3488L37.3994 30.0021C36.9709 30.444 36.7771 31.0629 36.877 31.6704Z" fill="#1D1D1B"/>
<path d="M27.5 0C12.3122 0 0 12.3122 0 27.5C0 42.6878 12.3122 55 27.5 55C42.6878 55 55 42.6878 55 27.5C55 12.3122 42.6878 0 27.5 0ZM27.5 53.1666C13.3247 53.1666 1.83337 41.6753 1.83337 27.5C1.83337 13.3247 13.3247 1.83337 27.5 1.83337C41.6753 1.83337 53.1666 13.3247 53.1666 27.5C53.1666 41.6753 41.6753 53.1666 27.5 53.1666Z" fill="#E30613"/>
</svg>
