<svg width="70" height="70" viewBox="0 0 70 70" fill="none" xmlns="http://www.w3.org/2000/svg">
<path d="M23.7512 27.0062C23.4361 27.6936 23.2979 28.449 23.3494 29.2035C23.4008 29.9579 23.6401 30.6876 24.0455 31.3259C24.451 31.9643 25.0097 32.4911 25.6707 32.8583C26.3318 33.2256 27.0742 33.4217 27.8304 33.4287L42.1698 33.4288C42.9317 33.4305 43.6815 33.2384 44.3487 32.8705C45.0158 32.5026 45.5784 31.9709 45.9835 31.3256C48.5764 26.8785 42.9886 21.9804 39.1733 20.6226C40.2819 19.7543 41.092 18.5617 41.4907 17.211C41.8894 15.8604 41.8568 14.4191 41.3975 13.0879C40.9381 11.7567 40.075 10.6019 38.9282 9.7845C37.7815 8.96711 36.4084 8.52782 35.0001 8.52783C33.5919 8.52785 32.2188 8.96718 31.0721 9.7846C29.9253 10.602 29.0622 11.7568 28.6029 13.088C28.1436 14.4192 28.1111 15.8606 28.5098 17.2112C28.9085 18.5618 29.7186 19.7544 30.8272 20.6227C27.7183 21.7329 25.1746 24.0276 23.7512 27.0062ZM35.0001 10.7153C36.2088 10.7263 37.3643 11.2143 38.2151 12.0729C39.0659 12.9316 39.5432 14.0914 39.5432 15.3002C39.5432 16.509 39.0658 17.6689 38.215 18.5275C37.3642 19.3861 36.2087 19.874 35 19.8851C33.7912 19.874 32.6358 19.3861 31.785 18.5274C30.9341 17.6688 30.4568 16.5089 30.4568 15.3001C30.4568 14.0913 30.9342 12.9315 31.785 12.0728C32.6359 11.2142 33.7913 10.7263 35.0001 10.7153ZM35.0001 22.0779C36.9411 22.0838 38.8411 22.6374 40.4815 23.6752C42.1219 24.7129 43.4361 26.1926 44.2729 27.944C44.4421 28.2934 44.5184 28.6806 44.4942 29.0681C44.4701 29.4556 44.3464 29.8303 44.1351 30.156C43.9264 30.4888 43.6365 30.7629 43.2927 30.9528C42.9489 31.1426 42.5625 31.2419 42.1697 31.2413H27.8303C27.4376 31.2419 27.0512 31.1426 26.7074 30.9528C26.3635 30.7629 26.0737 30.4888 25.865 30.156C25.6537 29.8303 25.53 29.4556 25.5058 29.0681C25.4817 28.6806 25.5579 28.2934 25.7272 27.944C26.564 26.1925 27.8782 24.7129 29.5186 23.6752C31.159 22.6374 33.059 22.0838 35.0001 22.0779Z" fill="#E30613"/>
<path d="M58.44 28.9705H50.0473C49.7601 28.9748 49.486 29.0919 49.2844 29.2966C49.0827 29.5012 48.9697 29.777 48.9697 30.0643C48.9697 30.3516 49.0828 30.6274 49.2844 30.832C49.486 31.0367 49.7601 31.1538 50.0474 31.158H58.44C59.1962 31.1509 59.9385 30.9548 60.5995 30.5875C61.2605 30.2201 61.819 29.6933 62.2243 29.0549C62.6296 28.4165 62.8687 27.6868 62.9199 26.9324C62.9711 26.178 62.8328 25.4227 62.5175 24.7354C61.0957 21.7552 58.5502 19.4603 55.4391 18.3537C56.2489 17.7222 56.9041 16.9144 57.355 15.9918C57.8058 15.0691 58.0405 14.0558 58.0411 13.0289C57.7263 4.07172 44.8149 4.06392 44.4969 13.029C44.4976 14.0601 44.7343 15.0774 45.1889 16.0029C45.6434 16.9284 46.3037 17.7377 47.1192 18.3686C46.0717 18.8431 43.7096 19.3423 44.4797 20.9233C44.6311 21.1704 44.8742 21.3476 45.1558 21.416C45.4374 21.4845 45.7347 21.4387 45.9826 21.2886C47.5775 20.3203 49.4082 19.8096 51.2741 19.8125C53.2135 19.8167 55.1123 20.3688 56.7517 21.4051C58.3911 22.4415 59.7043 23.9199 60.54 25.6701C60.7021 26.0236 60.773 26.4121 60.7464 26.8001C60.7198 27.1881 60.5965 27.5633 60.3877 27.8915C60.179 28.2196 59.8914 28.4903 59.5512 28.6787C59.2109 28.8672 58.829 28.9675 58.44 28.9705ZM51.2693 8.44456C52.478 8.45546 53.6334 8.94326 54.4843 9.80182C55.3351 10.6604 55.8125 11.8202 55.8125 13.029C55.8124 14.2377 55.3351 15.3975 54.4842 16.2561C53.6333 17.1146 52.4779 17.6024 51.2692 17.6133C50.0605 17.6024 48.905 17.1146 48.0541 16.256C47.2033 15.3975 46.7259 14.2376 46.726 13.0289C46.726 11.8201 47.2033 10.6603 48.0542 9.80175C48.9051 8.94321 50.0606 8.45543 51.2693 8.44456Z" fill="#1D1D1B"/>
<path d="M7.751 29.0613C8.15618 29.7049 8.7183 30.235 9.38456 30.6017C10.0508 30.9685 10.7994 31.1599 11.5599 31.158H19.9526C20.2391 31.1525 20.512 31.0349 20.7127 30.8304C20.9134 30.6258 21.0258 30.3507 21.0258 30.0642C21.0258 29.7777 20.9133 29.5026 20.7126 29.298C20.5119 29.0935 20.239 28.9759 19.9525 28.9705H11.5599C11.1711 28.9675 10.7892 28.8672 10.4491 28.6788C10.109 28.4904 9.82139 28.2199 9.61259 27.8919C9.40378 27.5639 9.28039 27.1888 9.25365 26.8009C9.22691 26.413 9.29768 26.0246 9.4595 25.6711C10.0814 24.3841 10.964 23.2403 12.0512 22.3124C13.1384 21.3844 14.4066 20.6925 15.7753 20.2805C17.144 19.8685 18.5834 19.7453 20.0022 19.9189C21.4211 20.0925 22.7883 20.5589 24.0174 21.2887C24.2654 21.4386 24.5626 21.4843 24.8441 21.4158C25.1256 21.3473 25.3687 21.1703 25.5202 20.9233C26.2927 19.3401 23.9245 18.8461 22.8809 18.3685C23.9941 17.504 24.8097 16.3134 25.2136 14.963C25.6175 13.6126 25.5896 12.1698 25.1339 10.836C24.6781 9.50217 23.8172 8.34397 22.6714 7.52308C21.5256 6.70219 20.152 6.2596 18.7425 6.25709C17.333 6.25458 15.9579 6.69228 14.8091 7.50909C13.6604 8.32589 12.7954 9.48102 12.3349 10.8132C11.8744 12.1454 11.8414 13.5881 12.2405 14.9399C12.6396 16.2918 13.4509 17.4852 14.5611 18.3537C10.7344 19.7087 5.15531 24.6114 7.751 29.0613ZM18.7307 8.4445C19.9396 8.45508 21.0954 8.94274 21.9465 9.80133C22.7976 10.6599 23.2751 11.82 23.2751 13.0289C23.2751 14.2379 22.7975 15.3979 21.9464 16.2565C21.0953 17.115 19.9395 17.6027 18.7306 17.6132C17.5217 17.6026 16.3659 17.115 15.5148 16.2564C14.6637 15.3978 14.1861 14.2378 14.1862 13.0288C14.1862 11.8199 14.6637 10.6598 15.5148 9.80126C16.366 8.94269 17.5218 8.45505 18.7307 8.4445Z" fill="#1D1D1B"/>
<path d="M59.7003 43.1827L44.7888 47.5898C44.6603 46.6684 44.2967 45.7957 43.733 45.0557C43.1693 44.3156 42.4246 43.7331 41.5706 43.3643C41.35 43.3295 29.0817 37.9717 28.8548 37.932C27.2968 37.4578 25.6581 37.308 24.0399 37.4921C22.4217 37.6761 20.8585 38.1901 19.4468 39.0021L4.92199 47.3879C4.67076 47.533 4.48742 47.7719 4.41231 48.0521C4.3372 48.3323 4.37645 48.6309 4.52145 48.8822L10.7048 59.5922C10.7867 59.7344 10.8996 59.8562 11.0352 59.9487C11.1708 60.0412 11.3254 60.1019 11.4877 60.1262L34.1894 63.5752C37.2888 64.0531 40.4598 63.526 43.238 62.0713L63.1412 51.702C64.1468 51.1648 64.9182 50.2747 65.3071 49.203C65.696 48.1313 65.6749 46.9537 65.248 45.8966C64.821 44.8395 64.0183 43.9775 62.9942 43.4766C61.9701 42.9756 60.7969 42.8709 59.7003 43.1827ZM62.1308 49.7623L42.2275 60.1316C39.8599 61.3696 37.1587 61.8187 34.5179 61.4133L12.3363 58.0434L6.96316 48.7359L20.5405 40.897C21.6835 40.2389 22.9486 39.8206 24.2586 39.6676C25.5686 39.5146 26.896 39.6302 28.1599 40.0072L40.7108 45.3756C41.4066 45.6844 41.9704 46.2299 42.3019 46.9153C42.6333 47.6006 42.711 48.3813 42.521 49.1185C42.331 49.8557 41.8857 50.5017 41.2643 50.9415C40.6429 51.3812 39.8856 51.5864 39.1272 51.5204L30.4782 50.6499C30.3353 50.6355 30.191 50.6494 30.0534 50.6909C29.9158 50.7323 29.7878 50.8004 29.6766 50.8913C29.5653 50.9822 29.4731 51.0941 29.4051 51.2207C29.3371 51.3472 29.2947 51.4859 29.2804 51.6288C29.266 51.7718 29.2799 51.9161 29.3213 52.0537C29.3627 52.1912 29.4308 52.3193 29.5217 52.4305C29.6126 52.5418 29.7246 52.634 29.8511 52.702C29.9777 52.77 30.1164 52.8124 30.2593 52.8267L38.9089 53.6972C40.1472 53.8247 41.3914 53.5185 42.4292 52.8309C43.4669 52.1433 44.2339 51.1169 44.5993 49.9268L60.3208 45.2805C60.8971 45.1191 61.5126 45.1758 62.0496 45.4398C62.5866 45.7038 63.0074 46.1566 63.2315 46.7114C63.4556 47.2663 63.4672 47.8843 63.2641 48.4472C63.061 49.0101 62.6575 49.4783 62.1308 49.7623Z" fill="#1D1D1B"/>
</svg>
