<svg width="70" height="70" viewBox="0 0 70 70" fill="none" xmlns="http://www.w3.org/2000/svg">
<g clip-path="url(#clip0_490_6281)">
<path d="M5.54582 46.4433H5.43574C4.50203 46.4433 3.74219 45.6834 3.74219 44.7497V44.6249C3.74219 43.6912 4.50203 42.9314 5.43574 42.9314H5.54582C6.47953 42.9314 7.23937 43.6912 7.23937 44.6249V44.7497C7.23937 45.684 6.47953 46.4433 5.54582 46.4433Z" fill="#E30613"/>
<path d="M52.4136 44.2061C52.2488 41.8984 50.0009 40.0925 47.2952 40.0925C47.1619 40.0931 35.2811 40.0733 30.4048 40.0823C30.9163 39.178 31.3843 38.1861 31.8031 37.1164C33.3934 33.0151 32.9869 29.234 32.3552 26.7445C31.697 24.4983 30.0955 22.8934 28.2749 22.6546C28.2264 22.6484 28.1773 22.645 28.1281 22.645C28.1615 22.645 28.2066 22.645 28.2326 22.6489L28.0965 22.6252C28.0677 22.6207 28.039 22.6173 28.0102 22.6151C27.8939 22.6055 26.8337 22.5383 25.6923 23.1006C24.6344 23.634 23.752 25.6222 21.9902 30.0306C21.3991 31.5101 20.8402 32.9085 20.3965 33.8043C19.18 36.2391 16.9806 38.3504 13.8577 40.0806C12.6598 40.1591 11.6584 40.2489 10.8873 40.4227C10.2962 39.3947 9.22532 38.719 7.97266 38.719H3.40403C1.52702 38.719 0 40.3166 0 42.2811V66.439C0 68.4024 1.52702 70 3.40403 70H7.9721C9.08193 70 10.0665 69.4389 10.688 68.5768C10.78 68.591 10.872 68.6045 10.968 68.6045H39.7035C42.4144 68.6045 44.6634 66.7947 44.8243 64.4869C44.8954 63.5075 44.6035 62.5506 43.9961 61.7513C45.793 61.1393 47.0998 59.6829 47.2206 57.9447C47.289 57.0088 47.0253 56.0937 46.4721 55.3169C48.449 54.784 49.9224 53.2531 50.0517 51.4014C50.1234 50.4152 49.827 49.4527 49.2111 48.65C50.0551 48.3542 50.8008 47.8681 51.3676 47.2291C52.1302 46.3705 52.5011 45.2968 52.4136 44.2061ZM7.9721 67.7419H3.40403C2.77177 67.7419 2.25806 67.1576 2.25806 66.4385V42.2806C2.25806 41.5619 2.77234 40.9765 3.40403 40.9765H7.9721C8.61508 40.9765 9.11806 41.5495 9.11806 42.2806H9.1271L9.14347 66.4385H9.11806C9.11806 67.1576 8.60435 67.7419 7.9721 67.7419ZM49.6785 45.7314C49.1603 46.3157 48.3045 46.6849 47.4318 46.7188H45.0698C44.4466 46.7188 43.9408 47.2246 43.9408 47.8478C43.9408 48.471 44.4466 48.9768 45.0698 48.9768C45.9392 48.9768 46.7668 49.3088 47.2839 49.8648C47.5441 50.1443 47.845 50.61 47.7993 51.2417C47.7214 52.3555 46.4348 53.261 44.931 53.261H42.2388C41.6156 53.261 41.1098 53.7668 41.1098 54.39C41.1098 55.0132 41.6156 55.519 42.2388 55.519C43.1081 55.519 43.9363 55.851 44.4528 56.407C44.7131 56.6864 45.014 57.1522 44.9677 57.7839C44.8898 58.8976 43.6032 59.8031 42.0994 59.8031H39.8413C39.2181 59.8031 38.7123 60.3089 38.7123 60.9322C38.7123 61.5554 39.2181 62.0612 39.8413 62.0612C40.7106 62.0612 41.5382 62.3931 42.0553 62.9492C42.3156 63.2286 42.6165 63.6943 42.5707 64.326C42.4928 65.4398 41.2063 66.3453 39.7024 66.3453H11.4021L11.3863 42.6266C11.8114 42.538 12.6429 42.4183 14.2518 42.3167C14.4155 42.306 14.5741 42.2602 14.7181 42.1829C18.3705 40.2054 20.961 37.7255 22.4186 34.8086C22.9041 33.8292 23.4788 32.3902 24.0873 30.8677C24.8681 28.9139 26.167 25.6623 26.7581 25.0933C27.1459 24.916 27.5676 24.8449 27.9865 24.8935C28.9044 25.0165 29.789 26.014 30.1779 27.3384C30.7181 29.4689 31.0732 32.7538 29.6998 36.2955C29.1482 37.7035 28.5075 38.9561 27.7945 40.0185C27.1244 41.0172 27.8888 42.3297 29.059 42.3449C32.4427 42.3229 47.1433 42.3494 47.2935 42.3494C48.7719 42.3494 50.0856 43.2747 50.1618 44.3687C50.1618 44.3738 50.1623 44.3789 50.1629 44.3828C50.2126 44.9902 49.9269 45.452 49.6785 45.7314C49.9269 45.452 49.1603 46.3157 49.6785 45.7314Z" fill="#1D1D1B"/>
<path d="M42.8493 15.7071C42.1572 15.7071 41.6158 15.059 41.7383 14.3782L42.2814 11.3609H39.0664C37.7246 11.3609 36.6328 10.2894 36.6328 8.97185V2.38847C36.6339 1.07145 37.7252 0 39.067 0H67.5666C68.8689 0 69.937 1.02573 69.9985 2.33597L70.0002 8.97185C70.0002 10.2894 68.9085 11.3609 67.5666 11.3609H48.6903L43.5538 15.461C43.3494 15.6241 43.0999 15.7071 42.8493 15.7071ZM39.067 2.25806C38.9682 2.25806 38.8914 2.32806 38.8914 2.38847V8.97129C38.8914 9.03169 38.9682 9.10226 39.067 9.10226H43.6322C44.3243 9.10226 44.8663 9.75032 44.7432 10.4311L44.4931 11.821L47.5912 9.34839C47.791 9.18919 48.0394 9.10169 48.2957 9.10169H67.5672C67.666 9.10169 67.7427 9.03113 67.7427 8.97073V2.38847C67.7399 2.36758 67.6902 2.25806 67.5666 2.25806H39.067Z" fill="#E30613"/>
<path d="M57.0989 7.10889H42.4581C41.8349 7.10889 41.3291 6.60309 41.3291 5.97986C41.3291 5.35664 41.8349 4.85083 42.4581 4.85083H57.0994C57.7227 4.85083 58.2285 5.35664 58.2285 5.97986C58.2285 6.60309 57.7227 7.10889 57.0989 7.10889Z" fill="#E30613"/>
<path d="M64.175 7.10889H60.4904C59.8671 7.10889 59.3613 6.60309 59.3613 5.97986C59.3613 5.35664 59.8671 4.85083 60.4904 4.85083H64.175C64.7982 4.85083 65.304 5.35664 65.304 5.97986C65.304 6.60309 64.7987 7.10889 64.175 7.10889Z" fill="#E30613"/>
<path d="M63.7838 34.3853C63.5331 34.3853 63.2842 34.3023 63.0793 34.1386L57.9427 30.0385H39.0664C37.7246 30.0385 36.6328 28.9671 36.6328 27.6495V21.0356C36.6983 19.6893 37.7664 18.6782 39.0664 18.6782H67.566C68.9079 18.6782 69.9997 19.7497 69.9997 21.0667V27.6495C69.9997 28.9671 68.9079 30.0385 67.566 30.0385H64.3511L64.8942 33.0559C65.0178 33.7373 64.4759 34.3853 63.7838 34.3853ZM39.0664 20.9363C38.9564 20.9363 38.8931 21.026 38.8897 21.091L38.8909 27.6495C38.8909 27.7099 38.9677 27.7805 39.0664 27.7805H58.3379C58.5936 27.7805 58.842 27.8674 59.0424 28.0272L62.1405 30.4998L61.8904 29.1099C61.8311 28.7808 61.9209 28.4421 62.1354 28.1852C62.3499 27.9289 62.6672 27.7805 63.0014 27.7805H67.5666C67.6654 27.7805 67.7422 27.7099 67.7422 27.6495V21.0667C67.7422 21.0063 67.6654 20.9363 67.5666 20.9363H39.0664Z" fill="#E30613"/>
<path d="M64.175 25.7864H49.5343C48.9111 25.7864 48.4053 25.2806 48.4053 24.6574C48.4053 24.0341 48.9111 23.5283 49.5343 23.5283H64.1756C64.7988 23.5283 65.3046 24.0341 65.3046 24.6574C65.3046 25.2806 64.7988 25.7864 64.175 25.7864Z" fill="#E30613"/>
<path d="M46.1427 25.7864H42.4581C41.8349 25.7864 41.3291 25.2806 41.3291 24.6574C41.3291 24.0341 41.8349 23.5283 42.4581 23.5283H46.1427C46.766 23.5283 47.2718 24.0341 47.2718 24.6574C47.2718 25.2806 46.766 25.7864 46.1427 25.7864Z" fill="#E30613"/>
</g>
<defs>
<clipPath id="clip0_490_6281">
<rect width="70" height="70" fill="white"/>
</clipPath>
</defs>
</svg>
