<svg width="70" height="70" viewBox="0 0 70 70" fill="none" xmlns="http://www.w3.org/2000/svg">
<g clip-path="url(#clip0_490_6292)">
<path d="M69.0039 29.8011C68.8946 29.759 64.1134 29.8269 62.2451 24.8162C62.0101 24.186 61.7544 23.566 61.4777 22.9579C59.2525 18.0597 62.672 14.7422 62.7203 14.6328C63.0813 14.1982 63.052 13.56 62.6525 13.1606L56.8395 7.34803C56.4411 6.94853 55.8031 6.91982 55.3679 7.27967C55.258 7.32834 51.9372 10.7449 47.0434 8.52285C46.4346 8.24572 45.8147 7.98992 45.1845 7.7549C40.1596 5.88145 40.2419 1.10682 40.1996 0.997168C40.1478 0.434297 39.6757 0.00390625 39.1108 0.00390625H30.8899C30.325 0.00390625 29.8529 0.434297 29.8011 0.997168C29.759 1.10654 29.8269 5.88664 24.8162 7.7549C24.186 7.98992 23.5666 8.24559 22.9584 8.5223C18.0601 10.7471 14.7423 7.32807 14.6328 7.27967C14.1987 6.91873 13.5605 6.94799 13.1606 7.34748L7.34748 13.1606C6.94799 13.5601 6.91873 14.1982 7.27967 14.6328C7.32848 14.7431 10.7462 18.0649 8.5223 22.9579C8.24627 23.5662 7.99047 24.1855 7.7549 24.8156C5.88172 29.8407 1.10682 29.7584 0.997168 29.8005C0.434297 29.8523 0.00390625 30.3244 0.00390625 30.8894V39.1108C0.00390625 39.6757 0.434297 40.1478 0.997168 40.1996C1.10654 40.2417 5.88664 40.1732 7.7549 45.184C7.98992 45.8141 8.24613 46.4341 8.5223 47.0423C10.7484 51.9401 7.32752 55.2585 7.27912 55.3679C6.91873 55.8025 6.94799 56.4402 7.34748 56.8395L13.1606 62.6521C13.5605 63.0526 14.1987 63.082 14.6328 62.7199C14.7427 62.6713 18.0651 59.2533 22.9579 61.4778C23.5672 61.7539 24.1866 62.0108 24.8162 62.2453C29.8213 64.1111 29.7588 68.8944 29.8011 69.0041C29.8534 69.5664 30.325 69.9962 30.8899 69.9962H39.1108C39.6757 69.9962 40.1478 69.5659 40.1996 69.003C40.2417 68.8936 40.1732 64.1135 45.184 62.2453C45.8141 62.0102 46.4345 61.7546 47.0423 61.4778C51.9402 59.2522 55.2584 62.6721 55.3679 62.7205C55.8031 63.0814 56.4413 63.0526 56.8395 62.6521L62.6521 56.8395C63.0516 56.44 63.0809 55.8025 62.7205 55.3679C62.6717 55.2576 59.254 51.9353 61.4778 47.0423C61.7539 46.434 62.0102 45.8141 62.2453 45.1845C64.1187 40.1596 68.8933 40.2419 69.003 40.1996C69.5659 40.1478 69.9962 39.6757 69.9962 39.1108V30.8899C69.9961 30.325 69.5663 29.8534 69.0039 29.8011ZM67.8089 38.1261C64.3614 38.6238 61.4714 40.999 60.1957 44.4204C59.9789 45.0024 59.7418 45.5754 59.486 46.1377C57.9699 49.4746 58.3315 53.2036 60.4098 55.9889L55.9889 60.4098C53.2035 58.3304 49.4735 57.9705 46.1366 59.4865C45.5749 59.7423 45.0024 59.9789 44.4199 60.1957C40.9985 61.4714 38.6238 64.3614 38.1256 67.8089H31.8747C31.377 64.3619 29.0024 61.4714 25.5804 60.1957C24.9973 59.9783 24.4249 59.7418 23.8626 59.486C20.5246 57.969 16.7956 58.331 14.0114 60.4093L9.58994 55.9889C11.6687 53.2035 12.0304 49.4746 10.5143 46.1377C10.2585 45.5754 10.0214 45.0024 9.80459 44.4204C8.52887 40.9981 5.63891 38.6233 2.19141 38.1256V31.8747C5.63836 31.377 8.52887 29.0018 9.80404 25.581C10.022 24.9984 10.2585 24.4249 10.5143 23.8626C12.0304 20.5257 11.6693 16.7967 9.59049 14.0114L14.0114 9.59049C16.7957 11.6683 20.5262 12.0293 23.8631 10.5138C24.4254 10.2579 24.9979 10.0214 25.5799 9.80459C29.0017 8.52887 31.377 5.63891 31.8747 2.19141H38.1256C38.6233 5.63891 40.9985 8.52887 44.421 9.80459C45.003 10.0214 45.5749 10.2579 46.1377 10.5143C49.4746 12.0293 53.2025 11.6682 55.9889 9.59049L60.4098 14.0114C58.331 16.7968 57.9699 20.5262 59.4865 23.8626C59.7423 24.4249 59.9789 24.9979 60.1957 25.5804C61.4714 29.0018 64.3619 31.377 67.8089 31.8747V38.1261Z" fill="#1D1D1B"/>
<path d="M34.9997 15.3889C24.1863 15.3889 15.3887 24.1865 15.3887 35C15.3887 45.8135 24.1863 54.6111 34.9997 54.6111C45.8132 54.6111 54.6108 45.8135 54.6108 35C54.6108 24.1865 45.8132 15.3889 34.9997 15.3889ZM34.9997 52.4238C25.3921 52.4238 17.5759 44.6078 17.5759 35C17.5759 25.3922 25.3921 17.5761 34.9997 17.5761C44.6074 17.5761 52.4236 25.3924 52.4236 35C52.4236 44.6076 44.6074 52.4238 34.9997 52.4238Z" fill="#E30613"/>
<path d="M43.1134 28.3406H39.3941V27.059C39.3941 25.7465 38.3266 24.6785 37.0141 24.6785H32.9914C31.6789 24.6785 30.6109 25.7465 30.6109 27.059V28.3406H26.8862C25.2228 28.3406 23.8691 29.6943 23.8691 31.3577V33.6043C23.8691 34.6844 24.4388 35.6441 25.3318 36.1805V42.3982C25.3318 44.0104 26.6433 45.3218 28.2548 45.3218H41.7447C43.3563 45.3218 44.6677 44.0102 44.6677 42.3982V36.1807C45.5607 35.6444 46.1304 34.6844 46.1304 33.6043V31.3577C46.1305 29.6943 44.7769 28.3406 43.1134 28.3406ZM32.7981 27.059C32.7981 26.9522 32.8846 26.8657 32.9914 26.8657H37.0141C37.1203 26.8657 37.2069 26.9522 37.2069 27.059V28.3406H32.7982V27.059H32.7981ZM26.0564 31.3576C26.0564 30.9 26.4285 30.5277 26.8862 30.5277C32.2515 30.5287 38.3903 30.5278 43.1134 30.5277C43.571 30.5277 43.9433 30.8999 43.9433 31.3576V33.6041C43.9433 33.9695 43.7088 34.2876 43.3607 34.3966L35.8196 36.7488C35.2835 36.9164 34.7164 36.9164 34.1802 36.7488L26.6396 34.3966C26.291 34.2876 26.0565 33.9693 26.0565 33.6041L26.0564 31.3576ZM41.7447 43.1344H28.2548C27.849 43.1344 27.519 42.8038 27.519 42.398V36.9622L33.5286 38.8368C34.4911 39.137 35.5068 39.1374 36.4709 38.8368L42.4805 36.9624V42.398C42.4807 42.804 42.1506 43.1344 41.7447 43.1344Z" fill="#E30613"/>
</g>
<defs>
<clipPath id="clip0_490_6292">
<rect width="70" height="70" fill="white"/>
</clipPath>
</defs>
</svg>
