<svg width="70" height="70" viewBox="0 0 70 70" fill="none" xmlns="http://www.w3.org/2000/svg">
<g clip-path="url(#clip0_490_6301)">
<path d="M58.6542 28.4965H58.655C59.4978 28.4965 60.2158 29.2146 60.216 30.0575C60.216 30.3697 60.0899 30.6951 59.8897 30.9626C53.2529 39.5602 46.2385 48.0076 39.2208 56.459C35.7501 60.6088 32.2781 64.7601 28.6551 69.2134L28.6538 69.215C28.1455 69.8503 27.1764 69.9276 26.5194 69.4057C26.005 68.9524 25.8699 68.2352 26.0673 67.6409C26.0675 67.6403 26.0677 67.6397 26.0679 67.6392L35.0463 41.9113L35.1619 41.58L34.811 41.5789L11.1172 41.5035H11.1164C10.2735 41.5035 9.63086 40.8608 9.63086 40.0179C9.63086 39.6263 9.75974 39.3021 9.95526 39.0399L30.7785 13.4636L30.7795 13.4624C34.1741 9.23794 37.6443 5.01333 41.1155 0.787502L41.1175 0.784991C41.6259 0.149609 42.595 0.0723708 43.252 0.594216C43.7664 1.04757 43.9015 1.76493 43.704 2.35929C43.7038 2.35978 43.7036 2.36027 43.7035 2.36075L34.7251 28.0886L34.6095 28.4199L34.9604 28.421L58.6542 28.4965ZM32.3105 59.1772L32.74 59.4181C33.4179 58.5895 34.1147 57.7608 34.8129 56.9305L34.8138 56.9294C35.511 56.1004 36.2094 55.2698 36.8892 54.439C43.1523 46.9685 49.3418 39.4959 55.3054 31.8716L55.62 31.4693L55.1093 31.4675L32.6228 31.3921H32.6219C32.3899 31.3921 32.2038 31.3901 32.0219 31.3295L32.0219 31.3294L32.0163 31.3277C31.1836 31.0715 30.7867 30.1694 31.0475 29.3837L37.5362 10.8985L37.1063 10.658L33.1832 15.4865C33.1831 15.4866 33.183 15.4867 33.1829 15.4869C30.0889 19.26 27.0139 23.033 23.9391 26.8057L23.9386 26.8064C20.8638 30.5791 17.7893 34.3515 14.696 38.1239L14.3625 38.5306L14.8885 38.5324L37.224 38.6079H37.2249C37.4569 38.6079 37.643 38.6098 37.825 38.6705L37.8249 38.6706L37.8305 38.6723C38.6633 38.9285 39.0602 39.8306 38.7992 40.6164C38.7991 40.6169 38.7989 40.6175 38.7987 40.618L32.3105 59.1772Z" fill="#E30613" stroke="white" stroke-width="0.5"/>
<path d="M29.5865 4.75959L29.5865 4.7596L29.5876 4.76396C29.7781 5.5267 29.2676 6.376 28.4157 6.5726L28.4153 6.5727C21.8701 8.09483 16.3128 11.7483 12.4297 16.6969C8.47184 21.6447 6.18813 27.8112 6.18813 34.5093C6.18813 39.7614 7.63425 44.8613 10.2227 49.2008L10.2234 49.2019C12.8865 53.6151 16.6162 57.2691 21.2599 59.7813L21.2598 59.7814L21.267 59.785C22.0381 60.1705 22.3064 61.071 21.9098 61.8642C21.5248 62.6343 20.6261 62.9029 19.8336 62.5086C14.67 59.7389 10.5535 55.6972 7.63346 50.8305C4.71399 45.9648 3.1416 40.3499 3.1416 34.5093C3.1416 27.097 5.68706 20.2094 10.0295 14.7439C14.3723 9.27792 20.4356 5.23601 27.7721 3.58906L27.7721 3.58913L27.7779 3.58766C28.5406 3.397 29.3899 3.9076 29.5865 4.75959Z" fill="#1D1D1B" stroke="white" stroke-width="0.5"/>
<path d="M50.4612 6.65854L50.4614 6.65866C55.551 9.42796 59.669 13.5454 62.5147 18.3382L62.7297 18.2105L62.5147 18.3382C65.3599 23.1298 66.9313 28.6687 66.8563 34.3553H66.8562V34.3585C66.8562 41.8454 64.236 48.8079 59.8187 54.2732L59.8177 54.2745C55.4011 59.814 49.1875 63.7823 41.9234 65.4298L41.9225 65.43C41.0842 65.6235 40.3067 65.1138 40.1095 64.2592C39.9161 63.4213 40.4252 62.6442 41.279 62.4465C47.9008 61 53.5336 57.3461 57.4919 52.3983C61.4497 47.4511 63.8097 41.2089 63.8097 34.434C63.8097 29.1837 62.44 24.159 59.8506 19.818C57.2626 15.4792 53.5328 11.8256 48.9659 9.31379L48.9651 9.31337C48.2629 8.93037 47.9954 7.95349 48.3857 7.2379C48.7687 6.53572 49.7456 6.26822 50.4612 6.65854Z" fill="#1D1D1B" stroke="white" stroke-width="0.5"/>
</g>
<defs>
<clipPath id="clip0_490_6301">
<rect width="70" height="70" fill="white"/>
</clipPath>
</defs>
</svg>
