<svg width="55" height="55" viewBox="0 0 55 55" fill="none" xmlns="http://www.w3.org/2000/svg">
<path d="M40.7852 20.1959C39.9633 20.1959 39.2069 20.4798 38.6071 20.9535C38.3724 19.2381 36.8984 17.9118 35.1196 17.9118C34.1763 17.9118 33.3185 18.2847 32.6857 18.8909C32.1437 17.6428 30.8992 16.7678 29.4541 16.7678C28.6475 16.7678 27.9039 17.0411 27.3096 17.4991V10.7212C27.3096 8.77973 25.7301 7.2002 23.7886 7.2002C21.847 7.2002 20.2676 8.77973 20.2676 10.7212V22.1076C20.2676 22.4877 20.5757 22.7958 20.9558 22.7958C21.3359 22.7958 21.644 22.4877 21.644 22.1076V10.7212C21.644 9.53872 22.6061 8.57666 23.7886 8.57666C24.971 8.57666 25.9331 9.53872 25.9331 10.7212V26.1569C25.9331 26.5369 26.2412 26.8451 26.6213 26.8451C27.0014 26.8451 27.3096 26.5369 27.3096 26.1569V20.2887C27.3096 19.1062 28.2716 18.1442 29.4541 18.1442C30.6366 18.1442 31.5986 19.1061 31.5986 20.2887V26.1569C31.5986 26.5369 31.9068 26.8451 32.2869 26.8451C32.667 26.8451 32.9751 26.5369 32.9751 26.1569V21.4328C32.9751 20.2504 33.9371 19.2883 35.1196 19.2883C36.3022 19.2883 37.2642 20.2504 37.2642 21.4328V26.1569C37.2642 26.5369 37.5723 26.8451 37.9524 26.8451C38.3325 26.8451 38.6406 26.5369 38.6406 26.1569V23.7168C38.6406 22.5344 39.6027 21.5723 40.7852 21.5723C41.9676 21.5723 42.9297 22.5343 42.9297 23.7168V33.857L42.9264 36.7812C42.8932 39.1848 42.4322 41.5357 41.5562 43.7687L41.3368 44.328C41.1903 44.7017 41.116 45.0946 41.116 45.4961V50.2594C41.116 50.6395 41.4241 50.9476 41.8042 50.9476C42.1843 50.9476 42.4924 50.6395 42.4924 50.2594V45.4961C42.4924 45.2674 42.5347 45.0436 42.6182 44.8308L42.8376 44.2714C43.7743 41.8837 44.2672 39.37 44.3028 36.7915L44.3061 33.8577V23.7168C44.3061 21.7754 42.7266 20.1959 40.7852 20.1959Z" fill="#E30613"/>
<path d="M23.9424 43.9202C22.0019 43.4942 20.3156 42.3565 19.1941 40.7168L11.7841 29.8825C11.109 28.8953 11.2936 27.5746 12.2136 26.8105C13.1582 26.0259 14.5493 26.1194 15.3804 27.0234L19.737 31.7611C20.0457 32.0968 20.5199 32.2068 20.9449 32.041C21.3699 31.8753 21.6445 31.4735 21.6445 31.0173V25.0413C21.6445 24.6612 21.3364 24.353 20.9563 24.353C20.5762 24.353 20.268 24.6612 20.268 25.0413V30.305L16.3937 26.0916C15.0657 24.6476 12.8434 24.498 11.3341 25.7516C9.86418 26.9723 9.56916 29.0823 10.6478 30.6594L18.0578 41.4937C19.3332 43.3584 21.2288 44.6715 23.4155 45.2105V50.2599C23.4155 50.64 23.7236 50.9481 24.1037 50.9481C24.4838 50.9481 24.7919 50.64 24.7919 50.2599V44.9765C24.792 44.4725 24.4347 44.0283 23.9424 43.9202Z" fill="#E30613"/>
<path d="M30.114 11.6611C30.114 12.6726 29.8794 13.6399 29.4166 14.536C29.2422 14.8738 29.3746 15.289 29.7124 15.4633C29.8134 15.5154 29.9212 15.5401 30.0276 15.5401C30.2768 15.5401 30.5174 15.4043 30.6396 15.1675C31.2042 14.0742 31.4905 12.8945 31.4905 11.6611C31.4905 9.98369 30.9577 8.39039 29.9497 7.05348C29.721 6.75001 29.2894 6.68945 28.9859 6.91822C28.6824 7.14708 28.6218 7.57855 28.8506 7.88211C29.6772 8.97842 30.114 10.2851 30.114 11.6611Z" fill="#1D1D1B"/>
<path d="M17.6319 15.54C17.7383 15.54 17.8461 15.5152 17.9472 15.4631C18.2848 15.2887 18.4173 14.8735 18.2428 14.5358C17.7801 13.6397 17.5454 12.6725 17.5454 11.6608C17.5454 8.19565 20.3646 5.37646 23.8298 5.37646C24.8838 5.37646 25.9268 5.64286 26.846 6.14683C27.1792 6.32962 27.5976 6.20748 27.7803 5.87419C27.9631 5.54091 27.8411 5.12264 27.5077 4.93985C26.3863 4.32503 25.1145 4 23.8298 4C19.6055 4 16.1689 7.43666 16.1689 11.6608C16.1689 12.8943 16.4553 14.0741 17.0199 15.1673C17.1421 15.4042 17.3827 15.54 17.6319 15.54Z" fill="#1D1D1B"/>
<path d="M13.7763 17.1185C13.8753 17.1185 13.9759 17.097 14.0712 17.0517C14.4145 16.8886 14.5605 16.478 14.3974 16.1346C13.7302 14.7312 13.3921 13.226 13.3921 11.6608C13.3921 10.0957 13.7303 8.5905 14.3974 7.18706C14.5605 6.84377 14.4145 6.43321 14.0712 6.26996C13.7278 6.10671 13.3174 6.2528 13.1541 6.59609C12.3986 8.18563 12.0156 9.8896 12.0156 11.6607C12.0156 13.4319 12.3986 15.136 13.1541 16.7254C13.2721 16.9734 13.5189 17.1185 13.7763 17.1185Z" fill="#1D1D1B"/>
<path d="M33.5864 17.0517C33.6817 17.097 33.7823 17.1185 33.8813 17.1185C34.1387 17.1185 34.3855 16.9734 34.5034 16.7255C35.2589 15.1358 35.6419 13.4318 35.6419 11.6608C35.6419 9.88975 35.2589 8.18578 34.5034 6.59614C34.3402 6.25276 33.9297 6.10676 33.5864 6.26992C33.2431 6.43308 33.097 6.84363 33.2601 7.18692C33.9272 8.59046 34.2654 10.0957 34.2654 11.6607C34.2654 13.2257 33.9272 14.731 33.2601 16.1345C33.097 16.478 33.2431 16.8885 33.5864 17.0517Z" fill="#1D1D1B"/>
</svg>
