<svg width="21" height="21" viewBox="0 0 21 21" fill="none" xmlns="http://www.w3.org/2000/svg">
<g clip-path="url(#clip0_626_2678)">
<path d="M20.3437 14.4375C19.9814 14.4375 19.6875 14.7315 19.6875 15.0937V19.6875H1.31252V15.0937C1.31252 14.7315 1.0185 14.4375 0.656287 14.4375C0.294077 14.4375 0 14.7315 0 15.0937V20.3437C0 20.706 0.294023 20.9999 0.656233 20.9999H20.3437C20.706 20.9999 20.9999 20.7059 20.9999 20.3437V15.0937C21 14.7315 20.706 14.4375 20.3437 14.4375Z" fill="#1D1D1B"/>
<path d="M10.0315 15.5595C10.2865 15.8122 10.7132 15.8148 10.9682 15.5595L15.5561 11.0308C15.815 10.7742 15.8143 10.3588 15.5561 10.1028C15.2978 9.84616 14.8783 9.84616 14.62 10.1028L11.1622 13.5157V0.656309C11.1622 0.294002 10.8659 0 10.5001 0C10.1343 0 9.83804 0.294057 9.83804 0.656309V13.5157L6.38024 10.1028C6.12132 9.84616 5.70247 9.84616 5.44419 10.1028C5.18527 10.3594 5.18527 10.7749 5.44419 11.0308L10.0315 15.5595Z" fill="#1D1D1B"/>
</g>
<defs>
<clipPath id="clip0_626_2678">
<rect width="21" height="21" fill="white"/>
</clipPath>
</defs>
</svg>
