<svg width="16" height="11" viewBox="0 0 16 11" fill="none" xmlns="http://www.w3.org/2000/svg">
<g clip-path="url(#clip0_490_4890)">
<path d="M0.667112 10.4732C0.620763 10.4729 0.575457 10.4592 0.536527 10.4336C0.497596 10.4081 0.466663 10.3717 0.447369 10.3289C0.428075 10.2861 0.421224 10.2386 0.427621 10.192C0.434019 10.1453 0.4534 10.1015 0.483481 10.0657L4.322 5.45427C4.34252 5.42966 4.36761 5.4094 4.39583 5.39465C4.42406 5.37989 4.45487 5.37093 4.4865 5.36827C4.51814 5.36561 4.54998 5.36931 4.58021 5.37915C4.61044 5.38899 4.63846 5.40478 4.66268 5.42563C4.6869 5.44647 4.70684 5.47196 4.72137 5.50064C4.73589 5.52931 4.74472 5.56061 4.74733 5.59275C4.74995 5.62489 4.74631 5.65724 4.73662 5.68795C4.72694 5.71866 4.71139 5.74713 4.69087 5.77173L0.850742 10.3832C0.828589 10.411 0.800629 10.4335 0.768876 10.4491C0.737122 10.4647 0.702366 10.4729 0.667112 10.4732Z" fill="#1D1D1B"/>
<path d="M14.4649 11H1.53347C1.12662 10.9996 0.736582 10.8351 0.449046 10.5427C0.16151 10.2502 -2.23985e-07 9.85382 0 9.44049L0 1.55787C0.0004264 1.14483 0.162125 0.748831 0.449615 0.456768C0.737105 0.164705 1.1269 0.000433183 1.53347 0L14.4649 0C14.8716 0.000432207 15.2616 0.164651 15.5493 0.456668C15.8371 0.748685 15.9991 1.14468 16 1.55787V9.44049C15.9996 9.85397 15.8377 10.2504 15.5499 10.5428C15.2621 10.8351 14.8719 10.9996 14.4649 11ZM1.53347 0.490925C1.25507 0.491358 0.988181 0.603907 0.791315 0.803904C0.59445 1.0039 0.483664 1.27503 0.483238 1.55787V9.44049C0.483662 9.72348 0.594397 9.99478 0.791217 10.195C0.988036 10.3953 1.25492 10.5082 1.53347 10.5091H14.4649C14.7438 10.5086 15.011 10.3959 15.2082 10.1956C15.4054 9.99531 15.5163 9.72377 15.5168 9.44049V1.55787C15.5159 1.27488 15.4048 1.00375 15.2076 0.803804C15.0105 0.603853 14.7435 0.491357 14.4649 0.490925H1.53347Z" fill="#1D1D1B"/>
<path d="M7.99899 7.53564C7.9397 7.53513 7.88256 7.51307 7.83791 7.47345L0.505581 0.818142C0.481889 0.796652 0.462596 0.770632 0.448803 0.741568C0.43501 0.712503 0.426986 0.680963 0.425192 0.648749C0.421567 0.583688 0.44353 0.51983 0.486251 0.471221C0.528972 0.422613 0.588951 0.393236 0.652992 0.389553C0.717033 0.385871 0.779892 0.408184 0.827739 0.451584L7.99899 6.96125L15.1718 0.45813C15.2197 0.414729 15.2826 0.392416 15.3466 0.396099C15.4106 0.399782 15.4706 0.429158 15.5133 0.477767C15.5561 0.526376 15.578 0.590234 15.5744 0.655294C15.5708 0.720354 15.5419 0.781287 15.494 0.824688L8.16007 7.47345C8.11572 7.51359 8.05838 7.53572 7.99899 7.53564Z" fill="#1D1D1B"/>
<path d="M15.3331 10.5647C15.2965 10.5651 15.2602 10.5571 15.227 10.5412C15.1938 10.5253 15.1645 10.502 15.1415 10.473L11.3078 5.86817C11.2663 5.81847 11.246 5.75409 11.2513 5.68919C11.2566 5.62428 11.287 5.56416 11.336 5.52207C11.3849 5.47997 11.4483 5.45933 11.5121 5.4647C11.576 5.47007 11.6352 5.50101 11.6766 5.5507L15.5168 10.1605C15.5459 10.1964 15.5644 10.2399 15.5703 10.286C15.5761 10.3321 15.5691 10.379 15.5499 10.4212C15.5307 10.4634 15.5002 10.4992 15.4619 10.5246C15.4235 10.55 15.3789 10.5639 15.3331 10.5647Z" fill="#1D1D1B"/>
</g>
<defs>
<clipPath id="clip0_490_4890">
<rect width="16" height="11" fill="white"/>
</clipPath>
</defs>
</svg>
