<svg width="19" height="25" viewBox="0 0 19 25" fill="none" xmlns="http://www.w3.org/2000/svg">
<path d="M11.5881 7.2333H18.9233L11.5881 0.101929V7.2333Z" fill="#FFCD00"/>
<path d="M19 24.4504H0V0H10.3405V1.01877H1.01877V23.4316H17.9812V8.68498H19V24.4504Z" fill="#1D1D1B"/>
<path d="M2.77661 10.3405H4.53398V11.3592H2.77661V10.3405Z" fill="#FFCD00"/>
<path d="M6.11304 10.3403H16.2243V11.3591H6.11304V10.3403Z" fill="#1D1D1B"/>
<path d="M2.77661 13.6514H4.53398V14.6701H2.77661V13.6514Z" fill="#FFCD00"/>
<path d="M6.11304 13.6515H16.2243V14.6703H6.11304V13.6515Z" fill="#1D1D1B"/>
<path d="M2.77661 16.9369H4.53398V17.9557H2.77661V16.9369Z" fill="#FFCD00"/>
<path d="M6.11304 16.9369H16.2243V17.9557H6.11304V16.9369Z" fill="#1D1D1B"/>
<path d="M2.77661 20.248H4.53398V21.2668H2.77661V20.248Z" fill="#FFCD00"/>
<path d="M6.11304 20.2479H16.2243V21.2667H6.11304V20.2479Z" fill="#1D1D1B"/>
</svg>
