<svg width="16" height="15" viewBox="0 0 16 15" fill="none" xmlns="http://www.w3.org/2000/svg">
<g clip-path="url(#clip0_490_4775)">
<mask id="path-1-inside-1_490_4775" fill="white">
<path d="M14.9123 7.2881L13.1123 5.48814L7.71241 0.0882454C7.59482 -0.0287641 7.40521 -0.0287641 7.28762 0.0882454L1.88772 5.48814L0.0877571 7.2881C-0.0292524 7.4057 -0.0292524 7.59531 0.0877571 7.7129C0.205352 7.82991 0.394958 7.82991 0.512553 7.7129L1.80013 6.42471V14.7004C1.80013 14.8659 1.93454 15.0004 2.10012 15.0004H5.10006H9.89997H12.8999C13.0655 15.0004 13.1999 14.8659 13.1999 14.7004V6.42471L14.4875 7.7129C14.5463 7.77111 14.6231 7.8005 14.6999 7.8005C14.7767 7.8005 14.8535 7.77108 14.9123 7.7129C15.0293 7.59528 15.0293 7.4057 14.9123 7.2881ZM9.59997 14.4004H5.40006V9.90046C5.40006 8.74249 6.34205 7.8005 7.50001 7.8005C8.65798 7.8005 9.59997 8.74249 9.59997 9.90046V14.4004ZM12.5999 14.4004H10.2V9.90046C10.2 8.41188 8.98859 7.20051 7.50001 7.20051C6.01144 7.20051 4.80007 8.41188 4.80007 9.90046V14.4004H2.40011V5.82473L7.50001 0.724825L12.5999 5.82473V14.4004Z"/>
</mask>
<path d="M14.9123 7.2881L13.1123 5.48814L7.71241 0.0882454C7.59482 -0.0287641 7.40521 -0.0287641 7.28762 0.0882454L1.88772 5.48814L0.0877571 7.2881C-0.0292524 7.4057 -0.0292524 7.59531 0.0877571 7.7129C0.205352 7.82991 0.394958 7.82991 0.512553 7.7129L1.80013 6.42471V14.7004C1.80013 14.8659 1.93454 15.0004 2.10012 15.0004H5.10006H9.89997H12.8999C13.0655 15.0004 13.1999 14.8659 13.1999 14.7004V6.42471L14.4875 7.7129C14.5463 7.77111 14.6231 7.8005 14.6999 7.8005C14.7767 7.8005 14.8535 7.77108 14.9123 7.7129C15.0293 7.59528 15.0293 7.4057 14.9123 7.2881ZM9.59997 14.4004H5.40006V9.90046C5.40006 8.74249 6.34205 7.8005 7.50001 7.8005C8.65798 7.8005 9.59997 8.74249 9.59997 9.90046V14.4004ZM12.5999 14.4004H10.2V9.90046C10.2 8.41188 8.98859 7.20051 7.50001 7.20051C6.01144 7.20051 4.80007 8.41188 4.80007 9.90046V14.4004H2.40011V5.82473L7.50001 0.724825L12.5999 5.82473V14.4004Z" fill="#1D1D1B"/>
<path d="M14.9123 7.2881L15.6211 6.58276L15.6194 6.581L14.9123 7.2881ZM13.1123 5.48814L13.8194 4.78103L13.8194 4.78103L13.1123 5.48814ZM7.71241 0.0882454L8.41952 -0.618864L8.41775 -0.620625L7.71241 0.0882454ZM7.28762 0.0882454L6.58228 -0.620627L6.58051 -0.618861L7.28762 0.0882454ZM1.88772 5.48814L1.18062 4.78103L1.18062 4.78103L1.88772 5.48814ZM0.0877571 7.2881L-0.619352 6.581L-0.621113 6.58277L0.0877571 7.2881ZM0.0877571 7.7129L-0.621122 8.41825L-0.617582 8.42177L0.0877571 7.7129ZM0.512553 7.7129L1.21789 8.42177L1.21983 8.41984L0.512553 7.7129ZM1.80013 6.42471H2.80013V4.00968L1.09285 5.71778L1.80013 6.42471ZM13.1999 6.42471L13.9072 5.71778L12.1999 4.00968V6.42471H13.1999ZM14.4875 7.7129L13.7802 8.41985L13.7839 8.42354L14.4875 7.7129ZM14.9123 7.7129L15.6157 8.42374L15.6212 8.41815L14.9123 7.7129ZM9.59997 14.4004V15.4004H10.6V14.4004H9.59997ZM5.40006 14.4004H4.40006V15.4004H5.40006V14.4004ZM12.5999 14.4004V15.4004H13.5999V14.4004H12.5999ZM10.2 14.4004H9.19996V15.4004H10.2V14.4004ZM4.80007 14.4004V15.4004H5.80007V14.4004H4.80007ZM2.40011 14.4004H1.40011V15.4004H2.40011V14.4004ZM2.40011 5.82473L1.69301 5.11762L1.40011 5.41051V5.82473H2.40011ZM7.50001 0.724825L8.20712 0.0177179L7.50001 -0.689389L6.79291 0.0177179L7.50001 0.724825ZM12.5999 5.82473H13.5999V5.41051L13.307 5.11762L12.5999 5.82473ZM15.6194 6.581L13.8194 4.78103L12.4052 6.19525L14.2052 7.99521L15.6194 6.581ZM13.8194 4.78103L8.41952 -0.618861L7.00531 0.795352L12.4052 6.19525L13.8194 4.78103ZM8.41775 -0.620625C7.91004 -1.12581 7.08999 -1.12581 6.58228 -0.620625L7.99296 0.797116C7.72043 1.06828 7.2796 1.06828 7.00707 0.797116L8.41775 -0.620625ZM6.58051 -0.618861L1.18062 4.78103L2.59483 6.19525L7.99472 0.795352L6.58051 -0.618861ZM1.18062 4.78103L-0.61935 6.581L0.794864 7.99521L2.59483 6.19525L1.18062 4.78103ZM-0.621113 6.58277C-1.1263 7.09048 -1.1263 7.91053 -0.621113 8.41824L0.796628 7.00756C1.06779 7.28008 1.06779 7.72092 0.796628 7.99344L-0.621113 6.58277ZM-0.617582 8.42177C-0.10987 8.92695 0.71018 8.92695 1.21789 8.42177L-0.192785 7.00403C0.0797359 6.73287 0.520575 6.73287 0.793096 7.00403L-0.617582 8.42177ZM1.21983 8.41984L2.5074 7.13165L1.09285 5.71778L-0.194722 7.00596L1.21983 8.41984ZM0.800126 6.42471V14.7004H2.80013V6.42471H0.800126ZM0.800126 14.7004C0.800126 15.4182 1.38225 16.0004 2.10012 16.0004V14.0004C2.48682 14.0004 2.80013 14.3137 2.80013 14.7004H0.800126ZM2.10012 16.0004H5.10006V14.0004H2.10012V16.0004ZM5.10006 16.0004H9.89997V14.0004H5.10006V16.0004ZM9.89997 16.0004H12.8999V14.0004H9.89997V16.0004ZM12.8999 16.0004C13.6178 16.0004 14.1999 15.4182 14.1999 14.7004H12.1999C12.1999 14.3137 12.5132 14.0004 12.8999 14.0004V16.0004ZM14.1999 14.7004V6.42471H12.1999V14.7004H14.1999ZM12.4926 7.13165L13.7802 8.41984L15.1948 7.00596L13.9072 5.71778L12.4926 7.13165ZM13.7839 8.42354C14.0359 8.67297 14.368 8.8005 14.6999 8.8005V6.8005C14.8781 6.8005 15.0567 6.86926 15.191 7.00226L13.7839 8.42354ZM14.6999 8.8005C15.0319 8.8005 15.3639 8.67283 15.6157 8.42372L14.2089 7.00209C14.343 6.86934 14.5214 6.8005 14.6999 6.8005V8.8005ZM15.6212 8.41815C16.1262 7.91048 16.1264 7.09053 15.6211 6.58277L14.2034 7.99344C13.9322 7.72087 13.9323 7.28007 14.2033 7.00765L15.6212 8.41815ZM9.59997 13.4004H5.40006V15.4004H9.59997V13.4004ZM6.40006 14.4004V9.90046H4.40006V14.4004H6.40006ZM6.40006 9.90046C6.40006 9.29477 6.89433 8.8005 7.50001 8.8005V6.8005C5.78976 6.8005 4.40006 8.19021 4.40006 9.90046H6.40006ZM7.50001 8.8005C8.10569 8.8005 8.59997 9.29477 8.59997 9.90046H10.6C10.6 8.19021 9.21027 6.8005 7.50001 6.8005V8.8005ZM8.59997 9.90046V14.4004H10.6V9.90046H8.59997ZM12.5999 13.4004H10.2V15.4004H12.5999V13.4004ZM11.2 14.4004V9.90046H9.19996V14.4004H11.2ZM11.2 9.90046C11.2 7.8596 9.54087 6.20051 7.50001 6.20051V8.20051C8.4363 8.20051 9.19996 8.96417 9.19996 9.90046H11.2ZM7.50001 6.20051C5.45916 6.20051 3.80007 7.8596 3.80007 9.90046H5.80007C5.80007 8.96417 6.56373 8.20051 7.50001 8.20051V6.20051ZM3.80007 9.90046V14.4004H5.80007V9.90046H3.80007ZM4.80007 13.4004H2.40011V15.4004H4.80007V13.4004ZM3.40011 14.4004V5.82473H1.40011V14.4004H3.40011ZM3.10722 6.53183L8.20712 1.43193L6.79291 0.0177179L1.69301 5.11762L3.10722 6.53183ZM6.79291 1.43193L11.8928 6.53183L13.307 5.11762L8.20712 0.0177179L6.79291 1.43193ZM11.5999 5.82473V14.4004H13.5999V5.82473H11.5999Z" fill="#1D1D1B" mask="url(#path-1-inside-1_490_4775)"/>
</g>
<defs>
<clipPath id="clip0_490_4775">
<rect width="16" height="15" fill="white"/>
</clipPath>
</defs>
</svg>
