<svg width="69" height="25" viewBox="0 0 69 25" fill="none" xmlns="http://www.w3.org/2000/svg">
<g clip-path="url(#clip0_573_8918)">
<path d="M11.7582 1.7713C12.24 1.7713 12.6287 1.37584 12.6287 0.885648C12.6287 0.395452 12.24 0 11.7582 0C11.2764 0 10.8877 0.395452 10.8877 0.885648C10.8877 1.37584 11.2764 1.7713 11.7582 1.7713Z" fill="#1D1D1B"/>
<path d="M30.4588 15.2043H28.3008L31.22 0L36.0502 10.982L40.9291 0L43.5527 15.2043H41.3947L39.9816 6.68562L35.945 15.3444L31.9366 6.66914L30.4629 15.2043H30.4588Z" fill="#1D1D1B"/>
<path d="M44.6748 0.144175H46.9745L50.6387 9.61032L54.3839 0L58.0035 9.61032L61.7932 0.156533H64.093L57.878 15.2002L54.2584 5.18207L50.5942 15.2002L44.6748 0.144175Z" fill="#1D1D1B"/>
<path d="M66.8701 0H68.9998V15.2043H66.8701V0Z" fill="#1D1D1B"/>
<path fill-rule="evenodd" clip-rule="evenodd" d="M30.0423 23.7518C30.5565 23.7518 30.8966 23.5128 31.0059 23.3233V23.7023H31.5039V19.2617H31.0059V20.7776C30.8197 20.5881 30.5241 20.4604 30.0747 20.4604C29.2204 20.4604 28.5078 21.1401 28.5078 22.1205C28.5078 23.1009 29.1435 23.7476 30.0464 23.7476L30.0423 23.7518ZM31.0059 21.3832V22.6643C30.8804 22.9155 30.5727 23.2657 30.103 23.2657C29.4836 23.2657 29.0301 22.8373 29.0301 22.1123C29.0301 21.3873 29.5443 20.9424 30.1314 20.9424C30.5363 20.9424 30.8156 21.0989 31.0019 21.3832H31.0059Z" fill="#1D1D1B"/>
<path fill-rule="evenodd" clip-rule="evenodd" d="M33.0225 19.5009C33.0225 19.3279 32.8808 19.2002 32.7108 19.2002C32.5245 19.2002 32.3828 19.3279 32.3828 19.5009C32.3828 19.6904 32.5245 19.8181 32.7108 19.8181C32.8808 19.8181 33.0225 19.6904 33.0225 19.5009ZM32.9456 20.5266H32.4476V23.7026H32.9456V20.5266Z" fill="#1D1D1B"/>
<path fill-rule="evenodd" clip-rule="evenodd" d="M35.3221 24.9713C36.1157 24.9713 36.7189 24.5305 36.7189 23.4554V20.5142H36.2047V20.7984C36.063 20.6254 35.7391 20.4524 35.2735 20.4524C34.4192 20.4524 33.7188 21.0703 33.7188 22.096C33.7188 23.1217 34.3382 23.7396 35.2735 23.7396C35.7998 23.7396 36.0185 23.5831 36.2209 23.3441V23.5336C36.2209 24.1186 35.9092 24.4646 35.3059 24.4646C34.8079 24.4646 34.5123 24.2257 34.3909 23.9909L33.9414 24.1968C34.1115 24.6706 34.6419 24.9713 35.3221 24.9713ZM36.225 21.3998V22.6809C36.1157 22.9816 35.8039 23.2823 35.3545 23.2659C34.6864 23.2659 34.2532 22.8375 34.2532 22.1125C34.2532 21.3875 34.7674 20.9426 35.3545 20.9426C35.7756 20.9426 36.0833 21.1486 36.225 21.3998Z" fill="#1D1D1B"/>
<path fill-rule="evenodd" clip-rule="evenodd" d="M38.2413 19.5007C38.2413 19.3276 38.0996 19.2 37.9295 19.2C37.7433 19.2 37.6016 19.3276 37.6016 19.5007C37.6016 19.6901 37.7433 19.8178 37.9295 19.8178C38.0996 19.8178 38.2413 19.6901 38.2413 19.5007ZM38.1643 20.5264H37.6663V23.7023H38.1643V20.5264Z" fill="#1D1D1B"/>
<path d="M38.7873 20.531H39.4391V19.7236H39.9371V20.531H41.0101V21.0212H39.9371V22.4135C39.9371 23.0438 40.1072 23.2497 40.4797 23.2497C40.6983 23.2497 40.8683 23.155 41.0384 23.0273L41.2692 23.4063C41.0829 23.6122 40.7712 23.7399 40.3825 23.7399C39.7752 23.7399 39.4351 23.328 39.4351 22.5371V21.0212H38.7832V20.531H38.7873Z" fill="#1D1D1B"/>
<path fill-rule="evenodd" clip-rule="evenodd" d="M43.0109 20.4485C42.5614 20.4485 42.0634 20.6379 41.7679 20.9057L42.0148 21.2847C42.3104 21.0622 42.5898 20.9387 42.9461 20.9387C43.5979 20.9387 43.7842 21.3176 43.7842 21.8861C43.6303 21.8408 43.2862 21.7913 43.0554 21.7913C42.1566 21.7913 41.5654 22.0756 41.5654 22.7717C41.5654 23.3567 42.0148 23.7357 42.6991 23.7357C43.2416 23.7357 43.602 23.4967 43.7882 23.229V23.7027H44.2862V21.7254C44.2862 20.9181 43.853 20.4443 43.0109 20.4443V20.4485ZM43.7882 22.3433V22.6605C43.6789 22.9118 43.3388 23.2784 42.8084 23.2784C42.3873 23.2784 42.0958 23.0889 42.0958 22.7553C42.0958 22.3763 42.4845 22.2486 43.1202 22.2486C43.3672 22.2486 43.6344 22.2939 43.7882 22.3433Z" fill="#1D1D1B"/>
<path d="M45.1846 19.249H45.6826V23.7061H45.1846V19.249Z" fill="#1D1D1B"/>
<path fill-rule="evenodd" clip-rule="evenodd" d="M49.7843 20.4485C49.3349 20.4485 48.8369 20.6379 48.5413 20.9057L48.7883 21.2847C49.0839 21.0622 49.3632 20.9387 49.7195 20.9387C50.3714 20.9387 50.5576 21.3176 50.5576 21.8861C50.4038 21.8408 50.0596 21.7913 49.8288 21.7913C48.93 21.7913 48.3389 22.0756 48.3389 22.7717C48.3389 23.3567 48.7883 23.7357 49.4725 23.7357C50.0151 23.7357 50.3714 23.4967 50.5576 23.229V23.7027H51.0556V21.7254C51.0556 20.9181 50.6224 20.4443 49.7802 20.4443L49.7843 20.4485ZM50.5617 22.3433V22.6605C50.4524 22.9118 50.1123 23.2784 49.5819 23.2784C49.1648 23.2784 48.8693 23.0889 48.8693 22.7553C48.8693 22.3763 49.258 22.2486 49.8936 22.2486C50.1406 22.2486 50.4078 22.2939 50.5617 22.3433Z" fill="#1D1D1B"/>
<path fill-rule="evenodd" clip-rule="evenodd" d="M53.3387 24.971C54.1323 24.971 54.7355 24.5302 54.7355 23.4551V20.5139H54.2213V20.7982C54.0796 20.6252 53.7557 20.4521 53.2901 20.4521C52.4358 20.4521 51.7354 21.07 51.7354 22.0957C51.7354 23.1215 52.3589 23.7393 53.2901 23.7393C53.8164 23.7393 54.0351 23.5828 54.2375 23.3439V23.5334C54.2375 24.1183 53.9258 24.4643 53.3225 24.4643C52.8245 24.4643 52.5289 24.2254 52.4075 23.9906L51.958 24.1966C52.1281 24.6703 52.6585 24.971 53.3387 24.971ZM54.2254 21.3996V22.6807C54.1323 22.9814 53.8205 23.2821 53.3549 23.2656C52.6868 23.2656 52.2536 22.8372 52.2536 22.1122C52.2536 21.3872 52.7678 20.9423 53.3549 20.9423C53.776 20.9423 54.0837 21.1483 54.2254 21.3996Z" fill="#1D1D1B"/>
<path fill-rule="evenodd" clip-rule="evenodd" d="M57.1006 23.7683C57.6148 23.7683 58.048 23.5458 58.3436 23.1051L58.0156 22.8044C57.8294 23.0721 57.4893 23.2781 57.1127 23.2781C56.4771 23.2781 56.0115 22.9321 55.9791 22.2812H58.4327C58.465 22.137 58.465 22.0135 58.465 21.9022C58.465 21.0166 57.8415 20.4646 57.0196 20.4646C55.9791 20.4646 55.4365 21.1896 55.4365 22.1247C55.4365 23.1215 56.1046 23.7683 57.1006 23.7683ZM57.9387 21.824H55.9669C56.0438 21.3008 56.4163 20.9218 56.9913 20.9383C57.55 20.9383 57.9063 21.2555 57.9387 21.824Z" fill="#1D1D1B"/>
<path d="M59.165 20.5305H59.663V20.9425C59.8655 20.6253 60.2866 20.4688 60.736 20.4688C61.5457 20.4688 61.9952 20.8972 61.9952 21.9064V23.7065H61.4972V21.9682C61.4972 21.272 61.2016 20.9548 60.5821 20.9548C60.1934 20.9548 59.8371 21.2061 59.6671 21.6016V23.7024H59.1691V20.5264L59.165 20.5305Z" fill="#1D1D1B"/>
<path d="M65.6272 23.0434C65.3964 23.5007 64.8337 23.7561 64.3397 23.7561C63.3437 23.7561 62.6797 23.1093 62.6797 22.1125C62.6797 21.1815 63.3315 20.4524 64.3114 20.4524C64.8701 20.4524 65.3681 20.7037 65.5705 21.0991L65.1819 21.3669C64.9632 21.0662 64.7 20.9385 64.3114 20.9385C63.6757 20.9385 63.1939 21.4287 63.1939 22.1083C63.1939 22.788 63.6595 23.2782 64.3761 23.2782C64.7486 23.2782 65.0604 23.0887 65.2466 22.788L65.6353 23.0393L65.6272 23.0434Z" fill="#1D1D1B"/>
<path d="M66.4204 24.4643C66.465 24.4808 66.4974 24.4973 66.546 24.4973C66.7767 24.4973 66.9346 24.3407 67.1533 23.8341L67.2464 23.5952L65.7402 20.5469H66.3314L67.4974 22.9484L68.3841 20.5469H68.9267L67.7444 23.6775C67.3233 24.7527 66.9994 25.004 66.5621 25.004C66.4366 25.004 66.3152 24.971 66.222 24.9257L66.4245 24.4684L66.4204 24.4643Z" fill="#1D1D1B"/>
<path d="M19.3531 15.1877H22.7541L23.5314 13.8613H18.4502L16.2274 20.1514L14.8143 17.5604L12.4053 22.034V2.8916H11.1016V24.8104H12.4053L14.8143 20.1308L16.3043 23.3068L16.6606 22.3429L16.9724 21.5232" fill="#1D1D1B"/>
<path d="M4.17838 12.5145H0.761178L0 13.8409H5.08127L7.30407 7.53429L8.70092 10.1418L11.11 5.66825V24.8065H12.4299V2.89185H11.11L8.71711 7.57136L7.22715 4.39539L6.87085 5.3593H6.85465L6.55909 6.16669V6.18316" fill="#1D1D1B"/>
</g>
<defs>
<clipPath id="clip0_573_8918">
<rect width="69" height="25" fill="white"/>
</clipPath>
</defs>
</svg>
