<svg width="21" height="21" viewBox="0 0 21 21" fill="none" xmlns="http://www.w3.org/2000/svg">
<path d="M4.93446 0.936737L1.30292 4.4674C1.10926 4.65568 0.998191 4.91792 1.00663 5.18789C1.28902 14.2233 10.5257 18.6471 15.6505 19.88C15.9823 19.9598 16.3281 19.8524 16.5668 19.6086L20.0448 16.0552C20.5178 15.572 20.3848 14.7684 19.7814 14.4633L15.5143 12.306C15.1333 12.1134 14.6721 12.1839 14.366 12.4815L13.6578 13.17C13.2857 13.5318 12.6987 13.5487 12.3063 13.2091L7.40113 8.96362C6.87213 8.50576 6.96475 7.66013 7.58033 7.32764L8.37832 6.89663C8.85904 6.63699 9.04238 6.03958 8.79007 5.55497L6.51852 1.19194C6.20921 0.597837 5.4147 0.469837 4.93446 0.936737Z" stroke="#000000"/>
</svg>
