<svg width="19" height="25" viewBox="0 0 19 25" fill="none" xmlns="http://www.w3.org/2000/svg">
<path d="M11.5879 7.65944H18.923L11.5879 0.528076V7.65944Z" fill="#FFCD00"/>
<path d="M19 24.8767H0V0.42627H10.3405V1.44504H1.01877V23.8579H17.9812V9.11125H19V24.8767Z" fill="#1D1D1B"/>
<path d="M2.77686 10.7666H4.53423V11.7854H2.77686V10.7666Z" fill="#FFCD00"/>
<path d="M6.11328 10.7666H16.2245V11.7854H6.11328V10.7666Z" fill="#FFCD00"/>
<path d="M2.77686 14.0776H4.53423V15.0964H2.77686V14.0776Z" fill="#FFCD00"/>
<path d="M6.11328 14.0776H16.2245V15.0964H6.11328V14.0776Z" fill="#1D1D1B"/>
<path d="M2.77686 17.363H4.53423V18.3818H2.77686V17.363Z" fill="#1D1D1B"/>
<path d="M6.11328 17.363H16.2245V18.3818H6.11328V17.363Z" fill="#FFCD00"/>
<path d="M2.77686 20.6743H4.53423V21.6931H2.77686V20.6743Z" fill="#FFCD00"/>
<path d="M6.11328 20.6743H16.2245V21.6931H6.11328V20.6743Z" fill="#1D1D1B"/>
</svg>
