<svg width="22" height="22" viewBox="0 0 22 22" fill="none" xmlns="http://www.w3.org/2000/svg">
<path d="M20.0991 1C20.7154 1 21.1804 1.6444 20.9317 2.84299L17.915 19.7908C17.7041 20.9958 17.0932 21.2858 16.2498 20.7251L9.05408 14.3907C9.02618 14.3668 9.00344 14.3354 8.98776 14.2989C8.97208 14.2625 8.9639 14.2222 8.9639 14.1812C8.9639 14.1403 8.97208 14.1 8.98776 14.0635C9.00344 14.0271 9.02618 13.9957 9.05408 13.9718L17.3635 5.02751C17.742 4.62798 17.2824 4.43466 16.7851 4.79553L6.35635 12.6379C6.32472 12.6625 6.28881 12.6782 6.25134 12.6837C6.21387 12.6893 6.17583 12.6847 6.1401 12.6701L1.71236 11.0011C0.728415 10.6596 0.728414 9.85408 1.93401 9.28056L19.6504 1.13532C19.7909 1.05498 19.9435 1.00897 20.0991 1Z" stroke="#1D1D1B" stroke-linecap="round" stroke-linejoin="round"/>
</svg>
