<svg width="49" height="49" viewBox="0 0 49 49" fill="none" xmlns="http://www.w3.org/2000/svg">
<rect x="0.5" y="0.5" width="48" height="48" rx="24" stroke="#1D1D1B"/>
<path d="M26.6982 19.2464H34.4178L26.6982 11.7412V19.2464Z" fill="#E30613"/>
<path d="M34.4978 37.366H14.502V11.634H25.3844V12.7062H15.5741V36.2938H33.4257V20.7742H34.4978V37.366Z" fill="#1D1D1B"/>
<path d="M17.4238 22.5166H19.2733V23.5888H17.4238V22.5166Z" fill="#E30613"/>
<path d="M20.9346 22.5166H31.5758V23.5888H20.9346V22.5166Z" fill="#E30613"/>
<path d="M17.4238 26.001H19.2733V27.0731H17.4238V26.001Z" fill="#E30613"/>
<path d="M20.9346 26.001H31.5758V27.0731H20.9346V26.001Z" fill="#1D1D1B"/>
<path d="M17.4238 29.4587H19.2733V30.5309H17.4238V29.4587Z" fill="#1D1D1B"/>
<path d="M20.9346 29.4587H31.5758V30.5309H20.9346V29.4587Z" fill="#E30613"/>
<path d="M17.4238 32.9434H19.2733V34.0155H17.4238V32.9434Z" fill="#E30613"/>
<path d="M20.9346 32.9434H31.5758V34.0155H20.9346V32.9434Z" fill="#1D1D1B"/>
</svg>
