<svg width="42" height="40" viewBox="0 0 42 40" fill="none" xmlns="http://www.w3.org/2000/svg">
<path d="M12.6935 25.8067L13.1469 25.3755L12.741 24.8993C10.6322 22.4253 9.3748 19.2849 9.3748 15.8625C9.3748 7.95591 16.1196 1.49482 24.5161 1.49482C32.9047 1.49482 39.6573 7.95612 39.6573 15.8625C39.6573 23.7691 32.9125 30.2301 24.5161 30.2301C20.8908 30.2301 17.5725 29.025 14.9668 27.0161L14.5184 26.6703L14.1081 27.0606L3.24621 37.3906C2.85763 37.7602 2.22021 37.7602 1.83163 37.3906C1.46181 37.0389 1.46181 36.4885 1.83163 36.1368L12.6935 25.8067ZM11.3361 15.8625C11.3361 22.8312 17.2714 28.4296 24.5161 28.4296C31.7607 28.4296 37.696 22.8312 37.696 15.8625C37.696 8.89372 31.7607 3.29538 24.5161 3.29538C17.2714 3.29538 11.3361 8.89372 11.3361 15.8625Z" fill="#1D1D1B" stroke="#1D1D1B" stroke-width="1.32143"/>
<path d="M20.5967 15.3769H28.9886M24.726 11.6083V19.5889" stroke="#1D1D1B" stroke-width="2.64286"/>
</svg>
